STARTFONT 2.1
FONT -Adobe-Helvetica-Bold-O-Normal--14-100-100-100-P-82-ISO10646-1
SIZE 10 100 100
FONTBOUNDINGBOX 19 23 -1 -6
COMMENT $XFree86$
COMMENT ISO10646-1 extension by Markus Kuhn <mkuhn@acm.org>, 2001-03-20
COMMENT 
COMMENT +
COMMENT  Copyright 1984-1989, 1994 Adobe Systems Incorporated.
COMMENT  Copyright 1988, 1994 Digital Equipment Corporation.
COMMENT
COMMENT  Adobe is a trademark of Adobe Systems Incorporated which may be
COMMENT  registered in certain jurisdictions.
COMMENT  Permission to use these trademarks is hereby granted only in
COMMENT  association with the images described in this file.
COMMENT
COMMENT  Permission to use, copy, modify, distribute and sell this software
COMMENT  and its documentation for any purpose and without fee is hereby
COMMENT  granted, provided that the above copyright notices appear in all
COMMENT  copies and that both those copyright notices and this permission
COMMENT  notice appear in supporting documentation, and that the names of
COMMENT  Adobe Systems and Digital Equipment Corporation not be used in
COMMENT  advertising or publicity pertaining to distribution of the software
COMMENT  without specific, written prior permission.  Adobe Systems and
COMMENT  Digital Equipment Corporation make no representations about the
COMMENT  suitability of this software for any purpose.  It is provided "as
COMMENT  is" without express or implied warranty.
COMMENT -
STARTPROPERTIES 26
FOUNDRY "Adobe"
FAMILY_NAME "Helvetica"
WEIGHT_NAME "Bold"
SLANT "O"
SETWIDTH_NAME "Normal"
ADD_STYLE_NAME ""
PIXEL_SIZE 14
POINT_SIZE 100
RESOLUTION_X 100
RESOLUTION_Y 100
SPACING "P"
AVERAGE_WIDTH 82
CHARSET_REGISTRY "ISO10646"
CHARSET_ENCODING "1"
CAP_HEIGHT 11
X_HEIGHT 8
FONT_ASCENT 13
FONT_DESCENT 3
FACE_NAME "Helvetica Bold Oblique"
COPYRIGHT "Copyright (c) 1984, 1987 Adobe Systems Incorporated. All Rights Reserved. Copyright (c) 1988, 1991 Digital Equipment Corporation. All Rights Reserved."

STARTCHAR char0
ENCODING 0
SWIDTH 722 0
DWIDTH 10 0
BBX 11 11 1 0
BITMAP
AAA0
0000
8020
0000
8020
0000
8020
0000
8020
0000
AAA0
ENDCHAR
STARTCHAR space
ENCODING 32
SWIDTH 278 0
DWIDTH 4 0
BBX 1 1 0 0
BITMAP
00
ENDCHAR
STARTCHAR exclam
ENCODING 33
SWIDTH 333 0
DWIDTH 5 0
BBX 5 11 2 0
BITMAP
18
18
30
30
30
60
60
40
00
C0
C0
ENDCHAR
STARTCHAR quotedbl
ENCODING 34
SWIDTH 474 0
DWIDTH 7 0
BBX 5 3 4 8
BITMAP
D8
D8
90
ENDCHAR
STARTCHAR numbersign
ENCODING 35
SWIDTH 556 0
DWIDTH 10 0
BBX 10 10 1 0
BITMAP
0D80
0D80
1B00
7FC0
1B00
3600
FF00
6C00
D800
D800
ENDCHAR
STARTCHAR dollar
ENCODING 36
SWIDTH 556 0
DWIDTH 8 0
BBX 8 13 1 -1
BITMAP
04
1E
37
69
68
38
1C
16
16
A6
EC
78
40
ENDCHAR
STARTCHAR percent
ENCODING 37
SWIDTH 889 0
DWIDTH 13 0
BBX 12 11 2 0
BITMAP
1C30
3260
26C0
1D80
0300
0600
0C00
1B80
3640
64C0
C380
ENDCHAR
STARTCHAR ampersand
ENCODING 38
SWIDTH 722 0
DWIDTH 11 0
BBX 10 10 1 0
BITMAP
0E00
1B00
1300
1E00
3CC0
66C0
C380
C300
E780
7CC0
ENDCHAR
STARTCHAR quotesingle
ENCODING 39
SWIDTH 238 0
DWIDTH 4 0
BBX 2 3 4 8
BITMAP
C0
C0
80
ENDCHAR
STARTCHAR parenleft
ENCODING 40
SWIDTH 333 0
DWIDTH 5 0
BBX 6 14 2 -3
BITMAP
0C
18
30
60
60
C0
C0
C0
C0
C0
C0
60
60
30
ENDCHAR
STARTCHAR parenright
ENCODING 41
SWIDTH 333 0
DWIDTH 6 0
BBX 6 14 0 -3
BITMAP
30
18
18
0C
0C
0C
0C
0C
0C
18
18
30
60
C0
ENDCHAR
STARTCHAR asterisk
ENCODING 42
SWIDTH 389 0
DWIDTH 6 0
BBX 5 4 3 7
BITMAP
20
F8
60
A0
ENDCHAR
STARTCHAR plus
ENCODING 43
SWIDTH 584 0
DWIDTH 9 0
BBX 7 7 2 1
BITMAP
18
18
18
FE
30
30
30
ENDCHAR
STARTCHAR comma
ENCODING 44
SWIDTH 278 0
DWIDTH 4 0
BBX 3 4 1 -2
BITMAP
60
60
20
C0
ENDCHAR
STARTCHAR hyphen
ENCODING 45
SWIDTH 333 0
DWIDTH 5 0
BBX 4 2 1 3
BITMAP
F0
F0
ENDCHAR
STARTCHAR period
ENCODING 46
SWIDTH 278 0
DWIDTH 4 0
BBX 2 2 1 0
BITMAP
C0
C0
ENDCHAR
STARTCHAR slash
ENCODING 47
SWIDTH 278 0
DWIDTH 4 0
BBX 6 11 1 0
BITMAP
0C
0C
18
10
10
30
20
60
40
C0
C0
ENDCHAR
STARTCHAR zero
ENCODING 48
SWIDTH 556 0
DWIDTH 8 0
BBX 8 11 1 0
BITMAP
1E
33
63
63
43
C3
C2
C6
C6
CC
78
ENDCHAR
STARTCHAR one
ENCODING 49
SWIDTH 556 0
DWIDTH 8 0
BBX 5 11 3 0
BITMAP
18
78
18
30
30
30
60
60
60
C0
C0
ENDCHAR
STARTCHAR two
ENCODING 50
SWIDTH 556 0
DWIDTH 8 0
BBX 8 11 1 0
BITMAP
3E
63
63
03
07
0E
3C
70
E0
C0
FE
ENDCHAR
STARTCHAR three
ENCODING 51
SWIDTH 556 0
DWIDTH 8 0
BBX 8 11 1 0
BITMAP
1E
33
33
03
06
1C
06
06
C6
CC
78
ENDCHAR
STARTCHAR four
ENCODING 52
SWIDTH 556 0
DWIDTH 8 0
BBX 8 11 1 0
BITMAP
03
07
0F
1B
33
66
C6
FF
0C
0C
0C
ENDCHAR
STARTCHAR five
ENCODING 53
SWIDTH 556 0
DWIDTH 8 0
BBX 8 11 1 0
BITMAP
3F
30
30
60
7C
0E
06
06
C6
CC
78
ENDCHAR
STARTCHAR six
ENCODING 54
SWIDTH 556 0
DWIDTH 8 0
BBX 8 11 1 0
BITMAP
1E
33
60
60
FC
C6
C6
C6
C6
CC
78
ENDCHAR
STARTCHAR seven
ENCODING 55
SWIDTH 556 0
DWIDTH 8 0
BBX 7 11 2 0
BITMAP
7E
06
0C
18
30
30
60
60
C0
C0
C0
ENDCHAR
STARTCHAR eight
ENCODING 56
SWIDTH 556 0
DWIDTH 8 0
BBX 8 11 1 0
BITMAP
1E
33
63
63
66
3C
66
C6
C6
CC
78
ENDCHAR
STARTCHAR nine
ENCODING 57
SWIDTH 556 0
DWIDTH 8 0
BBX 8 11 1 0
BITMAP
1E
33
63
63
63
63
3E
06
C6
CC
78
ENDCHAR
STARTCHAR colon
ENCODING 58
SWIDTH 333 0
DWIDTH 5 0
BBX 4 8 2 0
BITMAP
30
30
00
00
00
00
C0
C0
ENDCHAR
STARTCHAR semicolon
ENCODING 59
SWIDTH 333 0
DWIDTH 5 0
BBX 5 10 1 -2
BITMAP
18
18
00
00
00
00
60
60
20
C0
ENDCHAR
STARTCHAR less
ENCODING 60
SWIDTH 584 0
DWIDTH 8 0
BBX 8 5 1 2
BITMAP
07
3C
E0
38
0E
ENDCHAR
STARTCHAR equal
ENCODING 61
SWIDTH 584 0
DWIDTH 9 0
BBX 8 3 2 3
BITMAP
7F
00
FE
ENDCHAR
STARTCHAR greater
ENCODING 62
SWIDTH 584 0
DWIDTH 9 0
BBX 8 5 1 2
BITMAP
70
1C
07
3C
E0
ENDCHAR
STARTCHAR question
ENCODING 63
SWIDTH 611 0
DWIDTH 9 0
BBX 8 11 3 0
BITMAP
3E
63
63
06
1C
30
60
60
00
C0
C0
ENDCHAR
STARTCHAR at
ENCODING 64
SWIDTH 975 0
DWIDTH 14 0
BBX 13 13 1 -2
BITMAP
07E0
1C30
3018
6348
4CC8
C998
9190
9330
9B60
CDC0
4000
71C0
1F00
ENDCHAR
STARTCHAR A
ENCODING 65
SWIDTH 722 0
DWIDTH 9 0
BBX 9 11 0 0
BITMAP
0300
0700
0D80
0D80
1980
1980
3180
7F80
6180
C180
C180
ENDCHAR
STARTCHAR B
ENCODING 66
SWIDTH 722 0
DWIDTH 10 0
BBX 10 11 1 0
BITMAP
1F80
18C0
18C0
30C0
3180
3F00
6180
6180
6180
C300
FE00
ENDCHAR
STARTCHAR C
ENCODING 67
SWIDTH 722 0
DWIDTH 11 0
BBX 10 11 2 0
BITMAP
0780
1CC0
30C0
6000
6000
C000
C000
C000
C180
6700
3C00
ENDCHAR
STARTCHAR D
ENCODING 68
SWIDTH 722 0
DWIDTH 11 0
BBX 11 11 1 0
BITMAP
1F80
18C0
1860
3060
3060
3060
60C0
60C0
6180
C700
FC00
ENDCHAR
STARTCHAR E
ENCODING 69
SWIDTH 667 0
DWIDTH 9 0
BBX 10 11 1 0
BITMAP
1FC0
1800
1800
3000
3000
3F80
6000
6000
6000
C000
FE00
ENDCHAR
STARTCHAR F
ENCODING 70
SWIDTH 611 0
DWIDTH 8 0
BBX 10 11 1 0
BITMAP
1FC0
1800
1800
3000
3000
3F00
6000
6000
6000
C000
C000
ENDCHAR
STARTCHAR G
ENCODING 71
SWIDTH 778 0
DWIDTH 11 0
BBX 11 11 2 0
BITMAP
0780
1CC0
3060
6000
6000
C3C0
C180
C180
C300
6700
3D00
ENDCHAR
STARTCHAR H
ENCODING 72
SWIDTH 722 0
DWIDTH 10 0
BBX 11 11 1 0
BITMAP
1860
1860
1860
30C0
30C0
3FC0
6180
6180
6180
C300
C300
ENDCHAR
STARTCHAR I
ENCODING 73
SWIDTH 278 0
DWIDTH 4 0
BBX 5 11 1 0
BITMAP
18
18
18
30
30
30
60
60
60
C0
C0
ENDCHAR
STARTCHAR J
ENCODING 74
SWIDTH 556 0
DWIDTH 8 0
BBX 9 11 1 0
BITMAP
0180
0180
0180
0300
0300
0300
0600
C600
C600
EC00
7800
ENDCHAR
STARTCHAR K
ENCODING 75
SWIDTH 722 0
DWIDTH 10 0
BBX 11 11 1 0
BITMAP
1860
18C0
1980
3300
3600
3C00
7600
6600
6300
C300
C180
ENDCHAR
STARTCHAR L
ENCODING 76
SWIDTH 611 0
DWIDTH 8 0
BBX 7 11 1 0
BITMAP
18
18
18
30
30
30
60
60
60
C0
FE
ENDCHAR
STARTCHAR M
ENCODING 77
SWIDTH 833 0
DWIDTH 13 0
BBX 14 11 1 0
BITMAP
180C
181C
1838
3C78
3458
34D0
65B0
6730
6730
C660
C660
ENDCHAR
STARTCHAR N
ENCODING 78
SWIDTH 722 0
DWIDTH 11 0
BBX 12 11 1 0
BITMAP
1830
1830
1C30
3C60
3660
3660
66C0
62C0
63C0
C180
C180
ENDCHAR
STARTCHAR O
ENCODING 79
SWIDTH 778 0
DWIDTH 12 0
BBX 11 11 2 0
BITMAP
0780
1CC0
3060
6060
6060
C060
C0C0
C0C0
C180
6700
3C00
ENDCHAR
STARTCHAR P
ENCODING 80
SWIDTH 667 0
DWIDTH 10 0
BBX 10 11 1 0
BITMAP
1F80
18C0
18C0
30C0
3180
3F00
6000
6000
6000
C000
C000
ENDCHAR
STARTCHAR Q
ENCODING 81
SWIDTH 778 0
DWIDTH 12 0
BBX 11 11 2 0
BITMAP
0780
1CC0
3060
6060
6060
C060
C0C0
C6C0
C380
6700
3D80
ENDCHAR
STARTCHAR R
ENCODING 82
SWIDTH 722 0
DWIDTH 10 0
BBX 10 11 1 0
BITMAP
1F80
18C0
18C0
30C0
3180
3F00
6180
6180
6180
C300
C300
ENDCHAR
STARTCHAR S
ENCODING 83
SWIDTH 667 0
DWIDTH 10 0
BBX 10 11 1 0
BITMAP
0F80
18C0
30C0
3800
1E00
0700
0380
0180
C180
C300
7E00
ENDCHAR
STARTCHAR T
ENCODING 84
SWIDTH 611 0
DWIDTH 8 0
BBX 8 11 3 0
BITMAP
FF
18
18
30
30
30
60
60
60
C0
C0
ENDCHAR
STARTCHAR U
ENCODING 85
SWIDTH 722 0
DWIDTH 11 0
BBX 11 11 2 0
BITMAP
3060
3060
3060
60C0
60C0
60C0
C180
C180
C180
C300
7E00
ENDCHAR
STARTCHAR V
ENCODING 86
SWIDTH 667 0
DWIDTH 10 0
BBX 9 11 3 0
BITMAP
C180
C180
C300
C300
C600
C600
CC00
CC00
D800
7000
6000
ENDCHAR
STARTCHAR W
ENCODING 87
SWIDTH 944 0
DWIDTH 14 0
BBX 13 11 3 0
BITMAP
C618
C618
C630
CE30
CE60
CA60
DAC0
D2C0
F380
6300
6300
ENDCHAR
STARTCHAR X
ENCODING 88
SWIDTH 667 0
DWIDTH 9 0
BBX 12 11 0 0
BITMAP
1830
1860
0CC0
0D80
0700
0600
0E00
1B00
3300
6180
C180
ENDCHAR
STARTCHAR Y
ENCODING 89
SWIDTH 667 0
DWIDTH 10 0
BBX 10 11 3 0
BITMAP
C0C0
C180
C300
6600
6C00
7800
3000
3000
6000
6000
6000
ENDCHAR
STARTCHAR Z
ENCODING 90
SWIDTH 611 0
DWIDTH 9 0
BBX 11 11 0 0
BITMAP
1FE0
00C0
0180
0300
0600
0C00
1800
3000
6000
C000
FF00
ENDCHAR
STARTCHAR bracketleft
ENCODING 91
SWIDTH 333 0
DWIDTH 5 0
BBX 8 14 0 -3
BITMAP
0F
0C
0C
18
18
18
30
30
30
60
60
C0
C0
F0
ENDCHAR
STARTCHAR backslash
ENCODING 92
SWIDTH 278 0
DWIDTH 6 0
BBX 5 11 3 0
BITMAP
C0
C0
40
40
60
20
30
30
10
18
18
ENDCHAR
STARTCHAR bracketright
ENCODING 93
SWIDTH 333 0
DWIDTH 5 0
BBX 8 14 -1 -3
BITMAP
0F
03
03
06
06
06
0C
0C
0C
18
18
30
30
F0
ENDCHAR
STARTCHAR asciicircum
ENCODING 94
SWIDTH 584 0
DWIDTH 8 0
BBX 6 6 2 5
BITMAP
18
38
6C
6C
CC
CC
ENDCHAR
STARTCHAR underscore
ENCODING 95
SWIDTH 556 0
DWIDTH 8 0
BBX 8 1 -1 -3
BITMAP
FF
ENDCHAR
STARTCHAR grave
ENCODING 96
SWIDTH 333 0
DWIDTH 5 0
BBX 3 2 4 9
BITMAP
C0
60
ENDCHAR
STARTCHAR a
ENCODING 97
SWIDTH 556 0
DWIDTH 8 0
BBX 8 8 1 0
BITMAP
1E
33
03
3E
66
C6
CC
76
ENDCHAR
STARTCHAR b
ENCODING 98
SWIDTH 611 0
DWIDTH 9 0
BBX 9 11 1 0
BITMAP
1800
1800
3000
3700
3980
7180
6180
6300
C300
E600
DC00
ENDCHAR
STARTCHAR c
ENCODING 99
SWIDTH 556 0
DWIDTH 8 0
BBX 8 8 1 0
BITMAP
1E
33
63
60
C0
C6
CC
78
ENDCHAR
STARTCHAR d
ENCODING 100
SWIDTH 611 0
DWIDTH 9 0
BBX 10 11 1 0
BITMAP
00C0
00C0
0180
1D80
3380
6180
6300
C300
C300
CE00
7600
ENDCHAR
STARTCHAR e
ENCODING 101
SWIDTH 556 0
DWIDTH 8 0
BBX 8 8 1 0
BITMAP
1E
33
63
7E
C0
C0
CC
78
ENDCHAR
STARTCHAR f
ENCODING 102
SWIDTH 333 0
DWIDTH 5 0
BBX 7 11 1 0
BITMAP
0E
18
18
7C
30
30
60
60
60
C0
C0
ENDCHAR
STARTCHAR g
ENCODING 103
SWIDTH 611 0
DWIDTH 9 0
BBX 10 11 0 -3
BITMAP
0EC0
19C0
30C0
3180
6180
6180
6700
3B00
0300
C600
7C00
ENDCHAR
STARTCHAR h
ENCODING 104
SWIDTH 611 0
DWIDTH 9 0
BBX 9 11 1 0
BITMAP
1800
1800
3000
3700
3B80
3180
6300
6300
6300
C600
C600
ENDCHAR
STARTCHAR i
ENCODING 105
SWIDTH 278 0
DWIDTH 4 0
BBX 5 11 1 0
BITMAP
18
18
00
30
30
30
60
60
60
C0
C0
ENDCHAR
STARTCHAR j
ENCODING 106
SWIDTH 278 0
DWIDTH 4 0
BBX 7 14 -1 -3
BITMAP
06
06
00
0C
0C
0C
18
18
18
30
30
30
E0
C0
ENDCHAR
STARTCHAR k
ENCODING 107
SWIDTH 556 0
DWIDTH 8 0
BBX 8 11 1 0
BITMAP
18
18
30
33
36
3C
78
6C
6C
CC
CC
ENDCHAR
STARTCHAR l
ENCODING 108
SWIDTH 278 0
DWIDTH 4 0
BBX 5 11 1 0
BITMAP
18
18
30
30
30
60
60
60
60
C0
C0
ENDCHAR
STARTCHAR m
ENCODING 109
SWIDTH 889 0
DWIDTH 12 0
BBX 12 8 1 0
BITMAP
36E0
3BB0
3330
6660
6660
6660
CCC0
CCC0
ENDCHAR
STARTCHAR n
ENCODING 110
SWIDTH 611 0
DWIDTH 9 0
BBX 9 8 1 0
BITMAP
3700
3980
3180
6300
6300
6300
C600
C600
ENDCHAR
STARTCHAR o
ENCODING 111
SWIDTH 611 0
DWIDTH 8 0
BBX 8 8 1 0
BITMAP
1E
33
63
63
C6
C6
CC
78
ENDCHAR
STARTCHAR p
ENCODING 112
SWIDTH 611 0
DWIDTH 9 0
BBX 10 11 0 -3
BITMAP
1B80
1CC0
38C0
30C0
3180
3180
7B00
6E00
6000
C000
C000
ENDCHAR
STARTCHAR q
ENCODING 113
SWIDTH 611 0
DWIDTH 9 0
BBX 9 11 1 -3
BITMAP
1D80
3380
6180
6300
C300
C300
CE00
7600
0600
0C00
0C00
ENDCHAR
STARTCHAR r
ENCODING 114
SWIDTH 389 0
DWIDTH 6 0
BBX 7 8 1 0
BITMAP
36
3E
30
60
60
60
C0
C0
ENDCHAR
STARTCHAR s
ENCODING 115
SWIDTH 556 0
DWIDTH 8 0
BBX 8 8 1 0
BITMAP
1E
33
30
1C
06
C6
CC
78
ENDCHAR
STARTCHAR t
ENCODING 116
SWIDTH 333 0
DWIDTH 5 0
BBX 6 10 1 0
BITMAP
18
18
7C
30
30
60
60
C0
C0
60
ENDCHAR
STARTCHAR u
ENCODING 117
SWIDTH 611 0
DWIDTH 9 0
BBX 9 8 1 0
BITMAP
3180
3180
6180
6300
6300
C600
CE00
7600
ENDCHAR
STARTCHAR v
ENCODING 118
SWIDTH 556 0
DWIDTH 8 0
BBX 8 8 2 0
BITMAP
C3
C3
C6
CC
CC
58
70
60
ENDCHAR
STARTCHAR w
ENCODING 119
SWIDTH 778 0
DWIDTH 11 0
BBX 10 8 2 0
BITMAP
CCC0
CCC0
CCC0
DD80
D580
F700
6600
6600
ENDCHAR
STARTCHAR x
ENCODING 120
SWIDTH 556 0
DWIDTH 7 0
BBX 9 8 0 0
BITMAP
3180
3300
1600
1C00
1C00
3400
6600
C600
ENDCHAR
STARTCHAR y
ENCODING 121
SWIDTH 556 0
DWIDTH 7 0
BBX 9 11 0 -3
BITMAP
3180
3180
3300
3300
3600
3600
1C00
1800
3000
6000
C000
ENDCHAR
STARTCHAR z
ENCODING 122
SWIDTH 500 0
DWIDTH 6 0
BBX 8 8 0 0
BITMAP
3F
06
0C
18
30
60
C0
FC
ENDCHAR
STARTCHAR braceleft
ENCODING 123
SWIDTH 389 0
DWIDTH 6 0
BBX 7 14 1 -3
BITMAP
06
0C
18
18
18
30
C0
60
60
60
C0
C0
C0
60
ENDCHAR
STARTCHAR bar
ENCODING 124
SWIDTH 280 0
DWIDTH 4 0
BBX 6 14 0 -3
BITMAP
0C
0C
0C
18
18
18
30
30
30
60
60
60
C0
C0
ENDCHAR
STARTCHAR braceright
ENCODING 125
SWIDTH 389 0
DWIDTH 6 0
BBX 7 14 0 -3
BITMAP
0C
06
06
06
0C
0C
06
18
18
30
30
30
60
C0
ENDCHAR
STARTCHAR asciitilde
ENCODING 126
SWIDTH 584 0
DWIDTH 9 0
BBX 8 3 1 3
BITMAP
71
DB
8E
ENDCHAR
STARTCHAR space
ENCODING 160
SWIDTH 278 0
DWIDTH 4 0
BBX 1 1 0 0
BITMAP
00
ENDCHAR
STARTCHAR exclamdown
ENCODING 161
SWIDTH 333 0
DWIDTH 5 0
BBX 5 11 1 -3
BITMAP
18
18
00
10
30
30
60
60
60
C0
C0
ENDCHAR
STARTCHAR cent
ENCODING 162
SWIDTH 556 0
DWIDTH 8 0
BBX 8 10 1 -1
BITMAP
02
1E
37
68
C8
D0
D6
EC
78
40
ENDCHAR
STARTCHAR sterling
ENCODING 163
SWIDTH 556 0
DWIDTH 9 0
BBX 9 11 1 0
BITMAP
0700
0D80
1880
1800
7E00
1800
3000
3000
6000
F300
DE00
ENDCHAR
STARTCHAR currency
ENCODING 164
SWIDTH 556 0
DWIDTH 9 0
BBX 8 6 1 2
BITMAP
63
3E
26
64
7C
C6
ENDCHAR
STARTCHAR yen
ENCODING 165
SWIDTH 556 0
DWIDTH 9 0
BBX 9 11 2 0
BITMAP
6180
6180
6300
6600
6C00
3800
FC00
3000
FC00
6000
6000
ENDCHAR
STARTCHAR brokenbar
ENCODING 166
SWIDTH 280 0
DWIDTH 4 0
BBX 5 14 1 -3
BITMAP
08
08
08
10
10
10
00
00
40
40
40
80
80
80
ENDCHAR
STARTCHAR section
ENCODING 167
SWIDTH 556 0
DWIDTH 9 0
BBX 9 14 1 -3
BITMAP
0F00
1D80
1980
1800
3C00
6600
6300
6300
3300
1E00
0C00
CC00
DC00
7800
ENDCHAR
STARTCHAR dieresis
ENCODING 168
SWIDTH 333 0
DWIDTH 5 0
BBX 5 2 3 9
BITMAP
D8
D8
ENDCHAR
STARTCHAR copyright
ENCODING 169
SWIDTH 737 0
DWIDTH 12 0
BBX 11 11 2 0
BITMAP
0F00
1080
2640
4940
5020
9020
9140
9240
4C80
6180
1E00
ENDCHAR
STARTCHAR ordfeminine
ENCODING 170
SWIDTH 370 0
DWIDTH 6 0
BBX 6 7 1 4
BITMAP
1C
24
1C
68
78
00
F8
ENDCHAR
STARTCHAR guillemotleft
ENCODING 171
SWIDTH 556 0
DWIDTH 11 0
BBX 9 5 2 2
BITMAP
1980
7700
CC00
6600
3300
ENDCHAR
STARTCHAR logicalnot
ENCODING 172
SWIDTH 584 0
DWIDTH 9 0
BBX 7 4 2 2
BITMAP
FE
06
0C
0C
ENDCHAR
STARTCHAR hyphen
ENCODING 173
SWIDTH 333 0
DWIDTH 5 0
BBX 4 2 1 3
BITMAP
F0
F0
ENDCHAR
STARTCHAR registered
ENCODING 174
SWIDTH 737 0
DWIDTH 12 0
BBX 11 11 2 0
BITMAP
0F00
1080
2640
4940
4920
8E20
9240
9240
4080
6180
1E00
ENDCHAR
STARTCHAR macron
ENCODING 175
SWIDTH 333 0
DWIDTH 5 0
BBX 5 1 3 10
BITMAP
F8
ENDCHAR
STARTCHAR degree
ENCODING 176
SWIDTH 400 0
DWIDTH 6 0
BBX 4 4 3 7
BITMAP
60
90
90
60
ENDCHAR
STARTCHAR plusminus
ENCODING 177
SWIDTH 584 0
DWIDTH 9 0
BBX 8 9 1 0
BITMAP
0C
0C
0C
7F
18
18
18
00
FE
ENDCHAR
STARTCHAR twosuperior
ENCODING 178
SWIDTH 333 0
DWIDTH 5 0
BBX 5 6 2 5
BITMAP
30
58
18
30
60
F0
ENDCHAR
STARTCHAR threesuperior
ENCODING 179
SWIDTH 333 0
DWIDTH 5 0
BBX 5 6 2 5
BITMAP
70
18
70
18
98
F0
ENDCHAR
STARTCHAR acute
ENCODING 180
SWIDTH 333 0
DWIDTH 5 0
BBX 3 2 4 9
BITMAP
60
C0
ENDCHAR
STARTCHAR mu
ENCODING 181
SWIDTH 611 0
DWIDTH 9 0
BBX 10 11 0 -3
BITMAP
18C0
18C0
30C0
3180
3180
6300
6700
7B00
C000
C000
C000
ENDCHAR
STARTCHAR paragraph
ENCODING 182
SWIDTH 556 0
DWIDTH 8 0
BBX 8 14 2 -3
BITMAP
1F
3A
7A
F4
F4
F4
68
28
28
50
50
50
A0
A0
ENDCHAR
STARTCHAR periodcentered
ENCODING 183
SWIDTH 278 0
DWIDTH 4 0
BBX 2 2 2 3
BITMAP
C0
C0
ENDCHAR
STARTCHAR cedilla
ENCODING 184
SWIDTH 333 0
DWIDTH 5 0
BBX 5 4 -1 -3
BITMAP
30
18
D8
70
ENDCHAR
STARTCHAR onesuperior
ENCODING 185
SWIDTH 333 0
DWIDTH 5 0
BBX 3 6 3 5
BITMAP
60
E0
60
C0
C0
C0
ENDCHAR
STARTCHAR ordmasculine
ENCODING 186
SWIDTH 365 0
DWIDTH 6 0
BBX 7 7 1 4
BITMAP
1C
36
66
6C
38
00
F8
ENDCHAR
STARTCHAR guillemotright
ENCODING 187
SWIDTH 556 0
DWIDTH 11 0
BBX 9 5 2 2
BITMAP
6600
3300
1980
7700
CC00
ENDCHAR
STARTCHAR onequarter
ENCODING 188
SWIDTH 834 0
DWIDTH 12 0
BBX 10 11 2 0
BITMAP
30C0
7180
3300
6600
6400
6CC0
19C0
1280
3580
67C0
C180
ENDCHAR
STARTCHAR onehalf
ENCODING 189
SWIDTH 834 0
DWIDTH 12 0
BBX 10 11 2 0
BITMAP
30C0
7180
3300
6600
6400
6D80
1AC0
10C0
3180
6300
C780
ENDCHAR
STARTCHAR threequarters
ENCODING 190
SWIDTH 834 0
DWIDTH 13 0
BBX 11 11 2 0
BITMAP
7060
18C0
7180
1B00
9A00
F660
0CE0
0940
1AC0
33E0
60C0
ENDCHAR
STARTCHAR questiondown
ENCODING 191
SWIDTH 611 0
DWIDTH 8 0
BBX 7 11 1 -3
BITMAP
06
06
00
0C
0C
18
70
C0
C6
CC
78
ENDCHAR
STARTCHAR Agrave
ENCODING 192
SWIDTH 722 0
DWIDTH 9 0
BBX 9 14 0 0
BITMAP
0600
0300
0000
0300
0700
0D80
0D80
1980
1980
3180
7F80
6180
C180
C180
ENDCHAR
STARTCHAR Aacute
ENCODING 193
SWIDTH 722 0
DWIDTH 9 0
BBX 9 14 0 0
BITMAP
0180
0300
0000
0300
0700
0D80
0D80
1980
1980
3180
7F80
6180
C180
C180
ENDCHAR
STARTCHAR Acircumflex
ENCODING 194
SWIDTH 722 0
DWIDTH 9 0
BBX 10 14 0 0
BITMAP
0380
06C0
0000
0300
0700
0D80
0D80
1980
1980
3180
7F80
6180
C180
C180
ENDCHAR
STARTCHAR Atilde
ENCODING 195
SWIDTH 722 0
DWIDTH 9 0
BBX 10 14 0 0
BITMAP
0340
0580
0000
0300
0700
0D80
0D80
1980
1980
3180
7F80
6180
C180
C180
ENDCHAR
STARTCHAR Adieresis
ENCODING 196
SWIDTH 722 0
DWIDTH 9 0
BBX 10 14 0 0
BITMAP
0CC0
0CC0
0000
0300
0700
0D80
0D80
1980
1980
3180
7F80
6180
C180
C180
ENDCHAR
STARTCHAR Aring
ENCODING 197
SWIDTH 722 0
DWIDTH 9 0
BBX 9 14 0 0
BITMAP
0300
0480
0300
0300
0700
0D80
0D80
1980
1980
3180
7F80
6180
C180
C180
ENDCHAR
STARTCHAR AE
ENCODING 198
SWIDTH 1000 0
DWIDTH 14 0
BBX 17 11 0 0
BITMAP
03FF80
066000
0C6000
0CC000
18C000
18FE00
318000
7F8000
618000
C30000
C3FC00
ENDCHAR
STARTCHAR Ccedilla
ENCODING 199
SWIDTH 722 0
DWIDTH 11 0
BBX 10 14 2 -3
BITMAP
0780
1CC0
30C0
6000
6000
C000
C000
C000
C180
6700
3C00
1800
D800
7000
ENDCHAR
STARTCHAR Egrave
ENCODING 200
SWIDTH 667 0
DWIDTH 9 0
BBX 10 14 1 0
BITMAP
0600
0300
0000
1FC0
1800
1800
3000
3000
3F80
6000
6000
6000
C000
FE00
ENDCHAR
STARTCHAR Eacute
ENCODING 201
SWIDTH 667 0
DWIDTH 9 0
BBX 10 14 1 0
BITMAP
0180
0300
0000
1FC0
1800
1800
3000
3000
3F80
6000
6000
6000
C000
FE00
ENDCHAR
STARTCHAR Ecircumflex
ENCODING 202
SWIDTH 667 0
DWIDTH 9 0
BBX 10 14 1 0
BITMAP
0700
0D80
0000
1FC0
1800
1800
3000
3000
3F80
6000
6000
6000
C000
FE00
ENDCHAR
STARTCHAR Edieresis
ENCODING 203
SWIDTH 667 0
DWIDTH 9 0
BBX 10 14 1 0
BITMAP
0CC0
0CC0
0000
1FC0
1800
1800
3000
3000
3F80
6000
6000
6000
C000
FE00
ENDCHAR
STARTCHAR Igrave
ENCODING 204
SWIDTH 278 0
DWIDTH 4 0
BBX 5 14 1 0
BITMAP
30
18
00
18
18
18
30
30
30
60
60
60
C0
C0
ENDCHAR
STARTCHAR Iacute
ENCODING 205
SWIDTH 278 0
DWIDTH 4 0
BBX 6 14 1 0
BITMAP
0C
18
00
18
18
18
30
30
30
60
60
60
C0
C0
ENDCHAR
STARTCHAR Icircumflex
ENCODING 206
SWIDTH 278 0
DWIDTH 4 0
BBX 7 14 1 0
BITMAP
1C
36
00
18
18
18
30
30
30
60
60
60
C0
C0
ENDCHAR
STARTCHAR Idieresis
ENCODING 207
SWIDTH 278 0
DWIDTH 4 0
BBX 7 14 1 0
BITMAP
36
36
00
18
18
18
30
30
30
60
60
60
C0
C0
ENDCHAR
STARTCHAR Eth
ENCODING 208
SWIDTH 722 0
DWIDTH 11 0
BBX 11 11 1 0
BITMAP
1F80
18C0
1860
3060
3060
F860
60C0
60C0
C180
C700
FC00
ENDCHAR
STARTCHAR Ntilde
ENCODING 209
SWIDTH 722 0
DWIDTH 11 0
BBX 12 14 1 0
BITMAP
0340
0580
0000
1830
1830
1C30
3C60
3660
3660
66C0
62C0
63C0
C180
C180
ENDCHAR
STARTCHAR Ograve
ENCODING 210
SWIDTH 778 0
DWIDTH 12 0
BBX 11 14 2 0
BITMAP
0600
0300
0000
0780
1CC0
3060
6060
6060
C060
C0C0
C0C0
C180
6700
3C00
ENDCHAR
STARTCHAR Oacute
ENCODING 211
SWIDTH 778 0
DWIDTH 12 0
BBX 11 14 2 0
BITMAP
0180
0300
0000
0780
1CC0
3060
6060
6060
C060
C0C0
C0C0
C180
6700
3C00
ENDCHAR
STARTCHAR Ocircumflex
ENCODING 212
SWIDTH 778 0
DWIDTH 12 0
BBX 11 14 2 0
BITMAP
0380
06C0
0000
0780
1CC0
3060
6060
6060
C060
C0C0
C0C0
C180
6700
3C00
ENDCHAR
STARTCHAR Otilde
ENCODING 213
SWIDTH 778 0
DWIDTH 12 0
BBX 11 14 2 0
BITMAP
0340
0580
0000
0780
1CC0
3060
6060
6060
C060
C0C0
C0C0
C180
6700
3C00
ENDCHAR
STARTCHAR Odieresis
ENCODING 214
SWIDTH 778 0
DWIDTH 12 0
BBX 11 14 2 0
BITMAP
0CC0
0CC0
0000
0780
1CC0
3060
6060
6060
C060
C0C0
C0C0
C180
6700
3C00
ENDCHAR
STARTCHAR multiply
ENCODING 215
SWIDTH 584 0
DWIDTH 9 0
BBX 9 7 1 1
BITMAP
6180
3300
1E00
1C00
3C00
6600
C300
ENDCHAR
STARTCHAR Oslash
ENCODING 216
SWIDTH 778 0
DWIDTH 12 0
BBX 15 11 0 0
BITMAP
01E6
073C
0C38
1878
18D8
3398
3630
3C30
3860
79C0
CF00
ENDCHAR
STARTCHAR Ugrave
ENCODING 217
SWIDTH 722 0
DWIDTH 11 0
BBX 11 14 2 0
BITMAP
0600
0300
0000
3060
3060
3060
60C0
60C0
60C0
C180
C180
C180
C300
7E00
ENDCHAR
STARTCHAR Uacute
ENCODING 218
SWIDTH 722 0
DWIDTH 11 0
BBX 11 14 2 0
BITMAP
0180
0300
0000
3060
3060
3060
60C0
60C0
60C0
C180
C180
C180
C300
7E00
ENDCHAR
STARTCHAR Ucircumflex
ENCODING 219
SWIDTH 722 0
DWIDTH 11 0
BBX 11 14 2 0
BITMAP
0700
0D80
0000
3060
3060
3060
60C0
60C0
60C0
C180
C180
C180
C300
7E00
ENDCHAR
STARTCHAR Udieresis
ENCODING 220
SWIDTH 722 0
DWIDTH 11 0
BBX 11 14 2 0
BITMAP
0CC0
0CC0
0000
3060
3060
3060
60C0
60C0
60C0
C180
C180
C180
C300
7E00
ENDCHAR
STARTCHAR Yacute
ENCODING 221
SWIDTH 667 0
DWIDTH 10 0
BBX 10 14 3 0
BITMAP
0600
0C00
0000
C0C0
C180
C300
6600
6C00
7800
3000
3000
6000
6000
6000
ENDCHAR
STARTCHAR Thorn
ENCODING 222
SWIDTH 667 0
DWIDTH 10 0
BBX 9 11 1 0
BITMAP
1800
1800
1F00
3180
3180
3180
6300
7E00
6000
C000
C000
ENDCHAR
STARTCHAR germandbls
ENCODING 223
SWIDTH 611 0
DWIDTH 9 0
BBX 9 11 1 0
BITMAP
0F00
1980
1980
3300
3600
3300
6300
6300
6300
C600
DC00
ENDCHAR
STARTCHAR agrave
ENCODING 224
SWIDTH 556 0
DWIDTH 8 0
BBX 8 11 1 0
BITMAP
18
0C
00
1E
33
03
3E
66
C6
CC
76
ENDCHAR
STARTCHAR aacute
ENCODING 225
SWIDTH 556 0
DWIDTH 8 0
BBX 8 11 1 0
BITMAP
06
0C
00
1E
33
03
3E
66
C6
CC
76
ENDCHAR
STARTCHAR acircumflex
ENCODING 226
SWIDTH 556 0
DWIDTH 8 0
BBX 8 11 1 0
BITMAP
0E
1B
00
1E
33
03
3E
66
C6
CC
76
ENDCHAR
STARTCHAR atilde
ENCODING 227
SWIDTH 556 0
DWIDTH 8 0
BBX 8 11 1 0
BITMAP
0D
16
00
1E
33
03
3E
66
C6
CC
76
ENDCHAR
STARTCHAR adieresis
ENCODING 228
SWIDTH 556 0
DWIDTH 8 0
BBX 8 11 1 0
BITMAP
1B
1B
00
1E
33
03
3E
66
C6
CC
76
ENDCHAR
STARTCHAR aring
ENCODING 229
SWIDTH 556 0
DWIDTH 8 0
BBX 8 11 1 0
BITMAP
06
09
06
1E
33
03
3E
66
C6
CC
76
ENDCHAR
STARTCHAR ae
ENCODING 230
SWIDTH 889 0
DWIDTH 13 0
BBX 13 8 1 0
BITMAP
1EF0
3398
0318
3FF0
6600
C600
CE60
77C0
ENDCHAR
STARTCHAR ccedilla
ENCODING 231
SWIDTH 556 0
DWIDTH 8 0
BBX 9 11 0 -3
BITMAP
0F00
1980
3180
3000
6000
6300
6600
3C00
1800
D800
7000
ENDCHAR
STARTCHAR egrave
ENCODING 232
SWIDTH 556 0
DWIDTH 8 0
BBX 8 11 1 0
BITMAP
18
0C
00
1E
33
63
7E
C0
C0
CC
78
ENDCHAR
STARTCHAR eacute
ENCODING 233
SWIDTH 556 0
DWIDTH 8 0
BBX 8 11 1 0
BITMAP
06
0C
00
1E
33
63
7E
C0
C0
CC
78
ENDCHAR
STARTCHAR ecircumflex
ENCODING 234
SWIDTH 556 0
DWIDTH 8 0
BBX 8 11 1 0
BITMAP
0E
1B
00
1E
33
63
7E
C0
C0
CC
78
ENDCHAR
STARTCHAR edieresis
ENCODING 235
SWIDTH 556 0
DWIDTH 8 0
BBX 8 11 1 0
BITMAP
1B
1B
00
1E
33
63
7E
C0
C0
CC
78
ENDCHAR
STARTCHAR igrave
ENCODING 236
SWIDTH 278 0
DWIDTH 4 0
BBX 4 11 1 0
BITMAP
60
30
00
30
30
30
60
60
60
C0
C0
ENDCHAR
STARTCHAR iacute
ENCODING 237
SWIDTH 278 0
DWIDTH 4 0
BBX 5 11 1 0
BITMAP
18
30
00
30
30
30
60
60
60
C0
C0
ENDCHAR
STARTCHAR icircumflex
ENCODING 238
SWIDTH 278 0
DWIDTH 4 0
BBX 6 11 1 0
BITMAP
38
6C
00
30
30
30
60
60
60
C0
C0
ENDCHAR
STARTCHAR idieresis
ENCODING 239
SWIDTH 278 0
DWIDTH 4 0
BBX 6 11 1 0
BITMAP
6C
6C
00
30
30
30
60
60
60
C0
C0
ENDCHAR
STARTCHAR eth
ENCODING 240
SWIDTH 611 0
DWIDTH 8 0
BBX 8 11 1 0
BITMAP
1B
0C
36
1F
33
63
63
C6
C6
CC
78
ENDCHAR
STARTCHAR ntilde
ENCODING 241
SWIDTH 611 0
DWIDTH 9 0
BBX 9 11 1 0
BITMAP
0680
0B00
0000
3700
3980
3180
6300
6300
6300
C600
C600
ENDCHAR
STARTCHAR ograve
ENCODING 242
SWIDTH 611 0
DWIDTH 8 0
BBX 8 11 1 0
BITMAP
18
0C
00
1E
33
63
63
C6
C6
CC
78
ENDCHAR
STARTCHAR oacute
ENCODING 243
SWIDTH 611 0
DWIDTH 8 0
BBX 8 11 1 0
BITMAP
06
0C
00
1E
33
63
63
C6
C6
CC
78
ENDCHAR
STARTCHAR ocircumflex
ENCODING 244
SWIDTH 611 0
DWIDTH 8 0
BBX 8 11 1 0
BITMAP
0E
1B
00
1E
33
63
63
C6
C6
CC
78
ENDCHAR
STARTCHAR otilde
ENCODING 245
SWIDTH 611 0
DWIDTH 8 0
BBX 8 11 1 0
BITMAP
0D
16
00
1E
33
63
63
C6
C6
CC
78
ENDCHAR
STARTCHAR odieresis
ENCODING 246
SWIDTH 611 0
DWIDTH 8 0
BBX 8 11 1 0
BITMAP
1B
1B
00
1E
33
63
63
C6
C6
CC
78
ENDCHAR
STARTCHAR divide
ENCODING 247
SWIDTH 584 0
DWIDTH 9 0
BBX 7 7 2 1
BITMAP
18
18
00
FE
00
30
30
ENDCHAR
STARTCHAR oslash
ENCODING 248
SWIDTH 611 0
DWIDTH 8 0
BBX 10 8 0 0
BITMAP
0F40
1980
3380
3580
6B00
7300
6600
BC00
ENDCHAR
STARTCHAR ugrave
ENCODING 249
SWIDTH 611 0
DWIDTH 9 0
BBX 9 11 1 0
BITMAP
0C00
0600
0000
3180
3180
6180
6300
6300
C600
CE00
7600
ENDCHAR
STARTCHAR uacute
ENCODING 250
SWIDTH 611 0
DWIDTH 9 0
BBX 9 11 1 0
BITMAP
0300
0600
0000
3180
3180
6180
6300
6300
C600
CE00
7600
ENDCHAR
STARTCHAR ucircumflex
ENCODING 251
SWIDTH 611 0
DWIDTH 9 0
BBX 9 11 1 0
BITMAP
0E00
1B00
0000
3180
3180
6180
6300
6300
C600
CE00
7600
ENDCHAR
STARTCHAR udieresis
ENCODING 252
SWIDTH 611 0
DWIDTH 9 0
BBX 9 11 1 0
BITMAP
1B00
1B00
0000
3180
3180
6180
6300
6300
C600
CE00
7600
ENDCHAR
STARTCHAR yacute
ENCODING 253
SWIDTH 556 0
DWIDTH 7 0
BBX 9 14 0 -3
BITMAP
0300
0600
0000
3180
3180
3300
3300
3600
3600
1C00
1800
3000
6000
C000
ENDCHAR
STARTCHAR thorn
ENCODING 254
SWIDTH 611 0
DWIDTH 9 0
BBX 10 14 0 -3
BITMAP
0C00
0C00
1800
1B80
1CC0
38C0
30C0
3180
3180
7B00
6E00
6000
C000
C000
ENDCHAR
STARTCHAR ydieresis
ENCODING 255
SWIDTH 556 0
DWIDTH 7 0
BBX 9 14 0 -3
BITMAP
0D80
0D80
0000
3180
3180
3300
3300
3600
3600
1C00
1800
3000
6000
C000
ENDCHAR
STARTCHAR Amacron
ENCODING 256
SWIDTH 722 0
DWIDTH 9 0
BBX 9 13 0 0
BITMAP
1F00
0000
0300
0700
0D80
0D80
1980
1980
3180
7F80
6180
C180
C180
ENDCHAR
STARTCHAR amacron
ENCODING 257
SWIDTH 556 0
DWIDTH 8 0
BBX 8 10 1 0
BITMAP
3E
00
1E
33
03
3E
66
C6
CC
76
ENDCHAR
STARTCHAR Abreve
ENCODING 258
SWIDTH 722 0
DWIDTH 9 0
BBX 9 14 0 0
BITMAP
0900
0F00
0000
0300
0700
0D80
0D80
1980
1980
3180
7F80
6180
C180
C180
ENDCHAR
STARTCHAR abreve
ENCODING 259
SWIDTH 556 0
DWIDTH 8 0
BBX 8 11 1 0
BITMAP
12
1E
00
1E
33
03
3E
66
C6
CC
76
ENDCHAR
STARTCHAR Aogonek
ENCODING 260
SWIDTH 722 0
DWIDTH 9 0
BBX 9 14 0 -3
BITMAP
0300
0700
0D80
0D80
1980
1980
3180
7F80
6180
C180
CD80
1800
1000
1C00
ENDCHAR
STARTCHAR aogonek
ENCODING 261
SWIDTH 556 0
DWIDTH 8 0
BBX 8 11 1 -3
BITMAP
1E
33
03
3E
66
C6
CC
7E
30
20
38
ENDCHAR
STARTCHAR Cacute
ENCODING 262
SWIDTH 722 0
DWIDTH 11 0
BBX 10 14 2 0
BITMAP
0300
0600
0000
0780
1CC0
30C0
6000
6000
C000
C000
C000
C180
6700
3C00
ENDCHAR
STARTCHAR cacute
ENCODING 263
SWIDTH 556 0
DWIDTH 8 0
BBX 8 11 1 0
BITMAP
0C
18
00
1E
33
63
60
C0
C6
CC
78
ENDCHAR
STARTCHAR Ccircumflex
ENCODING 264
SWIDTH 722 0
DWIDTH 11 0
BBX 10 14 2 0
BITMAP
0E00
1B00
0000
0780
1CC0
30C0
6000
6000
C000
C000
C000
C180
6700
3C00
ENDCHAR
STARTCHAR ccircumflex
ENCODING 265
SWIDTH 556 0
DWIDTH 8 0
BBX 8 11 1 0
BITMAP
1C
36
00
1E
33
63
60
C0
C6
CC
78
ENDCHAR
STARTCHAR Cdotaccent
ENCODING 266
SWIDTH 722 0
DWIDTH 11 0
BBX 10 14 2 0
BITMAP
0600
0600
0000
0780
1CC0
30C0
6000
6000
C000
C000
C000
C180
6700
3C00
ENDCHAR
STARTCHAR cdotaccent
ENCODING 267
SWIDTH 556 0
DWIDTH 8 0
BBX 8 11 1 0
BITMAP
0C
0C
00
1E
33
63
60
C0
C6
CC
78
ENDCHAR
STARTCHAR Ccaron
ENCODING 268
SWIDTH 722 0
DWIDTH 11 0
BBX 10 14 2 0
BITMAP
1B00
0E00
0000
0780
1CC0
30C0
6000
6000
C000
C000
C000
C180
6700
3C00
ENDCHAR
STARTCHAR ccaron
ENCODING 269
SWIDTH 556 0
DWIDTH 8 0
BBX 8 11 1 0
BITMAP
36
1C
00
1E
33
63
60
C0
C6
CC
78
ENDCHAR
STARTCHAR Dcaron
ENCODING 270
SWIDTH 722 0
DWIDTH 11 0
BBX 11 14 1 0
BITMAP
0D80
0700
0000
1F80
18C0
1860
3060
3060
3060
60C0
60C0
6180
C700
FC00
ENDCHAR
STARTCHAR dcaron
ENCODING 271
SWIDTH 858 0
DWIDTH 14 0
BBX 15 11 1 0
BITMAP
00CE
00C6
018C
1D80
3380
6180
6300
C300
C300
CE00
7600
ENDCHAR
STARTCHAR Dcroat
ENCODING 272
SWIDTH 722 0
DWIDTH 11 0
BBX 11 11 1 0
BITMAP
1F80
18C0
1860
3060
3060
F860
60C0
60C0
C180
C700
FC00
ENDCHAR
STARTCHAR dcroat
ENCODING 273
SWIDTH 611 0
DWIDTH 9 0
BBX 10 11 1 0
BITMAP
00C0
07C0
0180
1D80
3380
6180
6300
C300
C300
CE00
7600
ENDCHAR
STARTCHAR Emacron
ENCODING 274
SWIDTH 667 0
DWIDTH 9 0
BBX 10 13 1 0
BITMAP
1F00
0000
1FC0
1800
1800
3000
3000
3F80
6000
6000
6000
C000
FE00
ENDCHAR
STARTCHAR emacron
ENCODING 275
SWIDTH 556 0
DWIDTH 8 0
BBX 8 10 1 0
BITMAP
3E
00
1E
33
63
7E
C0
C0
CC
78
ENDCHAR
STARTCHAR Ebreve
ENCODING 276
SWIDTH 667 0
DWIDTH 9 0
BBX 10 14 1 0
BITMAP
1200
1E00
0000
1FC0
1800
1800
3000
3000
3F80
6000
6000
6000
C000
FE00
ENDCHAR
STARTCHAR ebreve
ENCODING 277
SWIDTH 556 0
DWIDTH 8 0
BBX 8 11 1 0
BITMAP
12
1E
00
1E
33
63
7E
C0
C0
CC
78
ENDCHAR
STARTCHAR Edotaccent
ENCODING 278
SWIDTH 667 0
DWIDTH 9 0
BBX 10 14 1 0
BITMAP
0C00
0C00
0000
1FC0
1800
1800
3000
3000
3F80
6000
6000
6000
C000
FE00
ENDCHAR
STARTCHAR edotaccent
ENCODING 279
SWIDTH 556 0
DWIDTH 8 0
BBX 8 11 1 0
BITMAP
0C
0C
00
1E
33
63
7E
C0
C0
CC
78
ENDCHAR
STARTCHAR Eogonek
ENCODING 280
SWIDTH 667 0
DWIDTH 9 0
BBX 10 14 1 -3
BITMAP
1FC0
1800
1800
3000
3000
3F80
6000
6000
6000
C000
FE00
3000
2000
3800
ENDCHAR
STARTCHAR eogonek
ENCODING 281
SWIDTH 556 0
DWIDTH 8 0
BBX 8 11 1 -3
BITMAP
1E
33
63
7E
C0
C0
CC
78
30
20
38
ENDCHAR
STARTCHAR Ecaron
ENCODING 282
SWIDTH 667 0
DWIDTH 9 0
BBX 10 14 1 0
BITMAP
1B00
0E00
0000
1FC0
1800
1800
3000
3000
3F80
6000
6000
6000
C000
FE00
ENDCHAR
STARTCHAR ecaron
ENCODING 283
SWIDTH 556 0
DWIDTH 8 0
BBX 8 11 1 0
BITMAP
36
1C
00
1E
33
63
7E
C0
C0
CC
78
ENDCHAR
STARTCHAR Gcircumflex
ENCODING 284
SWIDTH 778 0
DWIDTH 11 0
BBX 11 14 2 0
BITMAP
0700
0D80
0000
0780
1CC0
3060
6000
6000
C3C0
C180
C180
C300
6700
3D00
ENDCHAR
STARTCHAR gcircumflex
ENCODING 285
SWIDTH 611 0
DWIDTH 9 0
BBX 10 14 0 -3
BITMAP
0700
0D80
0000
0EC0
19C0
30C0
3180
6180
6180
6700
3B00
0300
C600
7C00
ENDCHAR
STARTCHAR Gbreve
ENCODING 286
SWIDTH 778 0
DWIDTH 11 0
BBX 11 14 2 0
BITMAP
0900
0F00
0000
0780
1CC0
3060
6000
6000
C3C0
C180
C180
C300
6700
3D00
ENDCHAR
STARTCHAR gbreve
ENCODING 287
SWIDTH 611 0
DWIDTH 9 0
BBX 10 14 0 -3
BITMAP
0900
0F00
0000
0EC0
19C0
30C0
3180
6180
6180
6700
3B00
0300
C600
7C00
ENDCHAR
STARTCHAR Gdotaccent
ENCODING 288
SWIDTH 778 0
DWIDTH 11 0
BBX 11 14 2 0
BITMAP
0600
0600
0000
0780
1CC0
3060
6000
6000
C3C0
C180
C180
C300
6700
3D00
ENDCHAR
STARTCHAR gdotaccent
ENCODING 289
SWIDTH 611 0
DWIDTH 9 0
BBX 10 14 0 -3
BITMAP
0600
0600
0000
0EC0
19C0
30C0
3180
6180
6180
6700
3B00
0300
C600
7C00
ENDCHAR
STARTCHAR Gcommaaccent
ENCODING 290
SWIDTH 778 0
DWIDTH 11 0
BBX 11 16 2 -5
BITMAP
0780
1CC0
3060
6000
6000
C3C0
C180
C180
C300
6700
3D00
0000
0C00
0C00
0400
1800
ENDCHAR
STARTCHAR gcommaaccent
ENCODING 291
SWIDTH 611 0
DWIDTH 9 0
BBX 10 15 0 -3
BITMAP
0300
0600
0700
0000
0EC0
19C0
30C0
3180
6180
6180
6700
3B00
0300
C600
7C00
ENDCHAR
STARTCHAR Hcircumflex
ENCODING 292
SWIDTH 722 0
DWIDTH 10 0
BBX 11 14 1 0
BITMAP
0700
0D80
0000
1860
1860
1860
30C0
30C0
3FC0
6180
6180
6180
C300
C300
ENDCHAR
STARTCHAR hcircumflex
ENCODING 293
SWIDTH 611 0
DWIDTH 9 0
BBX 9 14 1 0
BITMAP
3800
6C00
0000
1800
1800
3000
3700
3B80
3180
6300
6300
6300
C600
C600
ENDCHAR
STARTCHAR Hbar
ENCODING 294
SWIDTH 722 0
DWIDTH 10 0
BBX 11 11 1 0
BITMAP
1860
1860
FFE0
30C0
30C0
3FC0
6180
6180
6180
C300
C300
ENDCHAR
STARTCHAR hbar
ENCODING 295
SWIDTH 611 0
DWIDTH 9 0
BBX 9 11 1 0
BITMAP
1800
F800
3000
3700
3B80
3180
6300
6300
6300
C600
C600
ENDCHAR
STARTCHAR Itilde
ENCODING 296
SWIDTH 278 0
DWIDTH 4 0
BBX 6 14 1 0
BITMAP
34
58
00
18
18
18
30
30
30
60
60
60
C0
C0
ENDCHAR
STARTCHAR itilde
ENCODING 297
SWIDTH 278 0
DWIDTH 4 0
BBX 5 11 1 0
BITMAP
68
B0
00
30
30
30
60
60
60
C0
C0
ENDCHAR
STARTCHAR Imacron
ENCODING 298
SWIDTH 278 0
DWIDTH 4 0
BBX 6 13 1 0
BITMAP
7C
00
18
18
18
30
30
30
60
60
60
C0
C0
ENDCHAR
STARTCHAR imacron
ENCODING 299
SWIDTH 278 0
DWIDTH 4 0
BBX 5 10 1 0
BITMAP
F8
00
30
30
30
60
60
60
C0
C0
ENDCHAR
STARTCHAR Ibreve
ENCODING 300
SWIDTH 278 0
DWIDTH 4 0
BBX 6 14 1 0
BITMAP
24
3C
00
18
18
18
30
30
30
60
60
60
C0
C0
ENDCHAR
STARTCHAR ibreve
ENCODING 301
SWIDTH 278 0
DWIDTH 4 0
BBX 5 11 1 0
BITMAP
48
78
00
30
30
30
60
60
60
C0
C0
ENDCHAR
STARTCHAR Iogonek
ENCODING 302
SWIDTH 278 0
DWIDTH 4 0
BBX 5 14 1 -3
BITMAP
18
18
18
30
30
30
60
60
60
C0
E0
C0
80
E0
ENDCHAR
STARTCHAR iogonek
ENCODING 303
SWIDTH 278 0
DWIDTH 4 0
BBX 5 14 1 -3
BITMAP
18
18
00
30
30
30
60
60
60
C0
E0
C0
80
E0
ENDCHAR
STARTCHAR Idotaccent
ENCODING 304
SWIDTH 278 0
DWIDTH 4 0
BBX 5 14 1 0
BITMAP
18
18
00
18
18
18
30
30
30
60
60
60
C0
C0
ENDCHAR
STARTCHAR dotlessi
ENCODING 305
SWIDTH 278 0
DWIDTH 4 0
BBX 4 8 1 0
BITMAP
30
30
30
60
60
60
C0
C0
ENDCHAR
STARTCHAR IJ
ENCODING 306
SWIDTH 820 0
DWIDTH 12 0
BBX 13 11 1 0
BITMAP
1818
1818
1818
3030
3030
3030
6060
6C60
6C60
CEC0
C780
ENDCHAR
STARTCHAR ij
ENCODING 307
SWIDTH 542 0
DWIDTH 8 0
BBX 9 14 1 -3
BITMAP
1980
1980
0000
3300
3300
3300
6600
6600
6600
CC00
CC00
0C00
3800
3000
ENDCHAR
STARTCHAR Jcircumflex
ENCODING 308
SWIDTH 556 0
DWIDTH 8 0
BBX 9 14 1 0
BITMAP
0700
0D80
0000
0180
0180
0180
0300
0300
0300
0600
C600
C600
EC00
7800
ENDCHAR
STARTCHAR jcircumflex
ENCODING 309
SWIDTH 278 0
DWIDTH 4 0
BBX 7 14 -1 -3
BITMAP
1C
36
00
0C
0C
0C
18
18
18
30
30
30
E0
C0
ENDCHAR
STARTCHAR Kcommaaccent
ENCODING 310
SWIDTH 722 0
DWIDTH 10 0
BBX 11 16 1 -5
BITMAP
1860
18C0
1980
3300
3600
3C00
7600
6600
6300
C300
C180
0000
0C00
0C00
0400
1800
ENDCHAR
STARTCHAR kcommaaccent
ENCODING 311
SWIDTH 556 0
DWIDTH 8 0
BBX 8 16 1 -5
BITMAP
18
18
30
33
36
3C
78
6C
6C
CC
CC
00
18
18
08
30
ENDCHAR
STARTCHAR kgreenlandic
ENCODING 312
SWIDTH 556 0
DWIDTH 8 0
BBX 8 8 1 0
BITMAP
33
36
3C
78
6C
6C
CC
CC
ENDCHAR
STARTCHAR Lacute
ENCODING 313
SWIDTH 611 0
DWIDTH 8 0
BBX 7 14 1 0
BITMAP
0C
18
00
18
18
18
30
30
30
60
60
60
C0
FE
ENDCHAR
STARTCHAR lacute
ENCODING 314
SWIDTH 278 0
DWIDTH 4 0
BBX 5 14 1 0
BITMAP
18
30
00
18
18
30
30
30
60
60
60
60
C0
C0
ENDCHAR
STARTCHAR Lcommaaccent
ENCODING 315
SWIDTH 611 0
DWIDTH 8 0
BBX 7 16 1 -5
BITMAP
18
18
18
30
30
30
60
60
60
C0
FE
00
30
30
10
60
ENDCHAR
STARTCHAR lcommaaccent
ENCODING 316
SWIDTH 278 0
DWIDTH 4 0
BBX 5 16 1 -5
BITMAP
18
18
30
30
30
60
60
60
60
C0
C0
00
60
60
20
C0
ENDCHAR
STARTCHAR Lcaron
ENCODING 317
SWIDTH 858 0
DWIDTH 13 0
BBX 14 11 1 0
BITMAP
181C
180C
1818
3000
3000
3000
6000
6000
6000
C000
FE00
ENDCHAR
STARTCHAR lcaron
ENCODING 318
SWIDTH 542 0
DWIDTH 9 0
BBX 10 11 1 0
BITMAP
19C0
18C0
3180
3000
3000
6000
6000
6000
6000
C000
C000
ENDCHAR
STARTCHAR Ldot
ENCODING 319
SWIDTH 858 0
DWIDTH 12 0
BBX 11 11 1 0
BITMAP
1800
1800
1800
3000
3000
3000
6060
6060
6000
C000
FE00
ENDCHAR
STARTCHAR ldot
ENCODING 320
SWIDTH 542 0
DWIDTH 8 0
BBX 7 11 1 0
BITMAP
18
18
30
30
30
60
66
66
60
C0
C0
ENDCHAR
STARTCHAR Lslash
ENCODING 321
SWIDTH 611 0
DWIDTH 9 0
BBX 7 11 1 0
BITMAP
18
18
18
30
3C
70
E0
60
60
C0
FE
ENDCHAR
STARTCHAR lslash
ENCODING 322
SWIDTH 278 0
DWIDTH 4 0
BBX 5 11 1 0
BITMAP
18
18
30
30
38
60
E0
60
60
C0
C0
ENDCHAR
STARTCHAR Nacute
ENCODING 323
SWIDTH 722 0
DWIDTH 11 0
BBX 12 14 1 0
BITMAP
0180
0300
0000
1830
1830
1C30
3C60
3660
3660
66C0
62C0
63C0
C180
C180
ENDCHAR
STARTCHAR nacute
ENCODING 324
SWIDTH 611 0
DWIDTH 9 0
BBX 9 11 1 0
BITMAP
0600
0C00
0000
3700
3980
3180
6300
6300
6300
C600
C600
ENDCHAR
STARTCHAR Ncommaaccent
ENCODING 325
SWIDTH 722 0
DWIDTH 11 0
BBX 12 16 1 -5
BITMAP
1830
1830
1C30
3C60
3660
3660
66C0
62C0
63C0
C180
C180
0000
0600
0600
0200
0C00
ENDCHAR
STARTCHAR ncommaaccent
ENCODING 326
SWIDTH 611 0
DWIDTH 9 0
BBX 9 13 1 -5
BITMAP
3700
3980
3180
6300
6300
6300
C600
C600
0000
1800
1800
0800
3000
ENDCHAR
STARTCHAR Ncaron
ENCODING 327
SWIDTH 722 0
DWIDTH 11 0
BBX 12 14 1 0
BITMAP
0D80
0700
0000
1830
1830
1C30
3C60
3660
3660
66C0
62C0
63C0
C180
C180
ENDCHAR
STARTCHAR ncaron
ENCODING 328
SWIDTH 611 0
DWIDTH 9 0
BBX 9 11 1 0
BITMAP
1B00
0E00
0000
3700
3980
3180
6300
6300
6300
C600
C600
ENDCHAR
STARTCHAR napostrophe
ENCODING 329
SWIDTH 875 0
DWIDTH 14 0
BBX 11 11 4 0
BITMAP
E000
6000
C000
0DC0
0E60
0C60
18C0
18C0
18C0
3180
3180
ENDCHAR
STARTCHAR Eng
ENCODING 330
SWIDTH 722 0
DWIDTH 11 0
BBX 12 14 1 -3
BITMAP
1830
1830
1C30
3C60
3660
3660
66C0
62C0
63C0
C180
C180
0180
0700
0600
ENDCHAR
STARTCHAR eng
ENCODING 331
SWIDTH 611 0
DWIDTH 9 0
BBX 9 11 1 -3
BITMAP
3700
3980
3180
6300
6300
6300
C600
C600
0600
1C00
1800
ENDCHAR
STARTCHAR Omacron
ENCODING 332
SWIDTH 778 0
DWIDTH 12 0
BBX 11 13 2 0
BITMAP
0F80
0000
0780
1CC0
3060
6060
6060
C060
C0C0
C0C0
C180
6700
3C00
ENDCHAR
STARTCHAR omacron
ENCODING 333
SWIDTH 611 0
DWIDTH 8 0
BBX 8 10 1 0
BITMAP
3E
00
1E
33
63
63
C6
C6
CC
78
ENDCHAR
STARTCHAR Obreve
ENCODING 334
SWIDTH 778 0
DWIDTH 12 0
BBX 11 14 2 0
BITMAP
0900
0F00
0000
0780
1CC0
3060
6060
6060
C060
C0C0
C0C0
C180
6700
3C00
ENDCHAR
STARTCHAR obreve
ENCODING 335
SWIDTH 611 0
DWIDTH 8 0
BBX 8 11 1 0
BITMAP
12
1E
00
1E
33
63
63
C6
C6
CC
78
ENDCHAR
STARTCHAR Ohungarumlaut
ENCODING 336
SWIDTH 778 0
DWIDTH 12 0
BBX 11 14 2 0
BITMAP
06C0
0D80
0000
0780
1CC0
3060
6060
6060
C060
C0C0
C0C0
C180
6700
3C00
ENDCHAR
STARTCHAR ohungarumlaut
ENCODING 337
SWIDTH 611 0
DWIDTH 8 0
BBX 8 11 1 0
BITMAP
1B
36
00
1E
33
63
63
C6
C6
CC
78
ENDCHAR
STARTCHAR OE
ENCODING 338
SWIDTH 1000 0
DWIDTH 15 0
BBX 15 11 2 0
BITMAP
07FE
1CC0
30C0
6180
6180
C1FC
C300
C300
C300
6600
3FF0
ENDCHAR
STARTCHAR oe
ENCODING 339
SWIDTH 944 0
DWIDTH 13 0
BBX 13 8 1 0
BITMAP
1EF0
3398
6318
63F0
C600
C600
CE60
7FC0
ENDCHAR
STARTCHAR Racute
ENCODING 340
SWIDTH 722 0
DWIDTH 10 0
BBX 10 14 1 0
BITMAP
0300
0600
0000
1F80
18C0
18C0
30C0
3180
3F00
6180
6180
6180
C300
C300
ENDCHAR
STARTCHAR racute
ENCODING 341
SWIDTH 389 0
DWIDTH 6 0
BBX 7 11 1 0
BITMAP
0C
18
00
36
3E
30
60
60
60
C0
C0
ENDCHAR
STARTCHAR Rcommaaccent
ENCODING 342
SWIDTH 722 0
DWIDTH 10 0
BBX 10 16 1 -5
BITMAP
1F80
18C0
18C0
30C0
3180
3F00
6180
6180
6180
C300
C300
0000
0C00
0C00
0400
1800
ENDCHAR
STARTCHAR rcommaaccent
ENCODING 343
SWIDTH 389 0
DWIDTH 6 0
BBX 7 13 1 -5
BITMAP
36
3E
30
60
60
60
C0
C0
00
60
60
20
C0
ENDCHAR
STARTCHAR Rcaron
ENCODING 344
SWIDTH 722 0
DWIDTH 10 0
BBX 10 14 1 0
BITMAP
1B00
0E00
0000
1F80
18C0
18C0
30C0
3180
3F00
6180
6180
6180
C300
C300
ENDCHAR
STARTCHAR rcaron
ENCODING 345
SWIDTH 389 0
DWIDTH 6 0
BBX 7 11 1 0
BITMAP
6C
38
00
36
3E
30
60
60
60
C0
C0
ENDCHAR
STARTCHAR Sacute
ENCODING 346
SWIDTH 667 0
DWIDTH 10 0
BBX 10 14 1 0
BITMAP
0300
0600
0000
0F80
18C0
30C0
3800
1E00
0700
0380
0180
C180
C300
7E00
ENDCHAR
STARTCHAR sacute
ENCODING 347
SWIDTH 556 0
DWIDTH 8 0
BBX 8 11 1 0
BITMAP
0C
18
00
1E
33
30
1C
06
C6
CC
78
ENDCHAR
STARTCHAR Scircumflex
ENCODING 348
SWIDTH 667 0
DWIDTH 10 0
BBX 10 14 1 0
BITMAP
0E00
1B00
0000
0F80
18C0
30C0
3800
1E00
0700
0380
0180
C180
C300
7E00
ENDCHAR
STARTCHAR scircumflex
ENCODING 349
SWIDTH 556 0
DWIDTH 8 0
BBX 8 11 1 0
BITMAP
1C
36
00
1E
33
30
1C
06
C6
CC
78
ENDCHAR
STARTCHAR Scedilla
ENCODING 350
SWIDTH 667 0
DWIDTH 10 0
BBX 10 14 1 -3
BITMAP
0F80
18C0
30C0
3800
1E00
0700
0380
0180
C180
C300
7E00
0C00
6C00
3800
ENDCHAR
STARTCHAR scedilla
ENCODING 351
SWIDTH 556 0
DWIDTH 8 0
BBX 8 11 1 -3
BITMAP
1E
33
30
1C
06
C6
CC
78
18
D8
70
ENDCHAR
STARTCHAR Scaron
ENCODING 352
SWIDTH 667 0
DWIDTH 10 0
BBX 10 12 1 0
BITMAP
0D80
0700
0000
0F80
18C0
30C0
3800
1F00
0780
C180
C300
7E00
ENDCHAR
STARTCHAR scaron
ENCODING 353
SWIDTH 556 0
DWIDTH 8 0
BBX 8 11 1 0
BITMAP
1B
0E
00
1E
33
30
1C
06
C6
CC
78
ENDCHAR
STARTCHAR Tcommaaccent
ENCODING 354
SWIDTH 611 0
DWIDTH 8 0
BBX 9 14 2 -3
BITMAP
7F80
0C00
0C00
1800
1800
1800
3000
3000
3000
6000
7000
1800
D800
7000
ENDCHAR
STARTCHAR tcommaaccent
ENCODING 355
SWIDTH 333 0
DWIDTH 5 0
BBX 7 13 0 -3
BITMAP
0C
0C
3E
18
18
30
30
60
60
30
18
D8
70
ENDCHAR
STARTCHAR Tcaron
ENCODING 356
SWIDTH 611 0
DWIDTH 8 0
BBX 8 14 3 0
BITMAP
36
1C
00
FF
18
18
30
30
30
60
60
60
C0
C0
ENDCHAR
STARTCHAR tcaron
ENCODING 357
SWIDTH 594 0
DWIDTH 10 0
BBX 11 11 1 0
BITMAP
00E0
1860
18C0
7C00
3000
3000
6000
6000
C000
C000
6000
ENDCHAR
STARTCHAR Tbar
ENCODING 358
SWIDTH 611 0
DWIDTH 8 0
BBX 8 11 3 0
BITMAP
FF
18
18
30
30
3E
60
60
60
C0
C0
ENDCHAR
STARTCHAR tbar
ENCODING 359
SWIDTH 333 0
DWIDTH 5 0
BBX 6 10 1 0
BITMAP
18
18
7C
30
30
7C
60
C0
C0
60
ENDCHAR
STARTCHAR Utilde
ENCODING 360
SWIDTH 722 0
DWIDTH 11 0
BBX 11 14 2 0
BITMAP
0680
0B00
0000
3060
3060
3060
60C0
60C0
60C0
C180
C180
C180
C300
7E00
ENDCHAR
STARTCHAR utilde
ENCODING 361
SWIDTH 611 0
DWIDTH 9 0
BBX 9 11 1 0
BITMAP
0D00
1600
0000
3180
3180
6180
6300
6300
C600
CE00
7600
ENDCHAR
STARTCHAR Umacron
ENCODING 362
SWIDTH 722 0
DWIDTH 11 0
BBX 11 13 2 0
BITMAP
0F80
0000
3060
3060
3060
60C0
60C0
60C0
C180
C180
C180
C300
7E00
ENDCHAR
STARTCHAR umacron
ENCODING 363
SWIDTH 611 0
DWIDTH 9 0
BBX 9 10 1 0
BITMAP
1F00
0000
3180
3180
6180
6300
6300
C600
CE00
7600
ENDCHAR
STARTCHAR Ubreve
ENCODING 364
SWIDTH 722 0
DWIDTH 11 0
BBX 11 14 2 0
BITMAP
0900
0F00
0000
3060
3060
3060
60C0
60C0
60C0
C180
C180
C180
C300
7E00
ENDCHAR
STARTCHAR ubreve
ENCODING 365
SWIDTH 611 0
DWIDTH 9 0
BBX 9 11 1 0
BITMAP
1200
1E00
0000
3180
3180
6180
6300
6300
C600
CE00
7600
ENDCHAR
STARTCHAR Uring
ENCODING 366
SWIDTH 722 0
DWIDTH 11 0
BBX 11 15 2 0
BITMAP
0700
0D80
0700
0000
3060
3060
3060
60C0
60C0
60C0
C180
C180
C180
C300
7E00
ENDCHAR
STARTCHAR uring
ENCODING 367
SWIDTH 611 0
DWIDTH 9 0
BBX 9 12 1 0
BITMAP
0E00
1B00
0E00
0000
3180
3180
6180
6300
6300
C600
CE00
7600
ENDCHAR
STARTCHAR Uhungarumlaut
ENCODING 368
SWIDTH 722 0
DWIDTH 11 0
BBX 11 14 2 0
BITMAP
06C0
0D80
0000
3060
3060
3060
60C0
60C0
60C0
C180
C180
C180
C300
7E00
ENDCHAR
STARTCHAR uhungarumlaut
ENCODING 369
SWIDTH 611 0
DWIDTH 9 0
BBX 9 11 1 0
BITMAP
1B00
3600
0000
3180
3180
6180
6300
6300
C600
CE00
7600
ENDCHAR
STARTCHAR Uogonek
ENCODING 370
SWIDTH 722 0
DWIDTH 11 0
BBX 11 14 2 -3
BITMAP
3060
3060
3060
60C0
60C0
60C0
C180
C180
C180
C300
7E00
1800
1000
1C00
ENDCHAR
STARTCHAR uogonek
ENCODING 371
SWIDTH 611 0
DWIDTH 9 0
BBX 9 11 1 -3
BITMAP
3180
3180
6180
6300
6300
C600
CE00
7E00
3000
2000
3800
ENDCHAR
STARTCHAR Wcircumflex
ENCODING 372
SWIDTH 944 0
DWIDTH 14 0
BBX 13 14 3 0
BITMAP
0700
0D80
0000
C618
C618
C630
CE30
CE60
CA60
DAC0
D2C0
F380
6300
6300
ENDCHAR
STARTCHAR wcircumflex
ENCODING 373
SWIDTH 778 0
DWIDTH 11 0
BBX 10 11 2 0
BITMAP
0E00
1B00
0000
CCC0
CCC0
CCC0
DD80
D580
F700
6600
6600
ENDCHAR
STARTCHAR Ycircumflex
ENCODING 374
SWIDTH 667 0
DWIDTH 10 0
BBX 10 14 3 0
BITMAP
1C00
3600
0000
C0C0
C180
C300
6600
6C00
7800
3000
3000
6000
6000
6000
ENDCHAR
STARTCHAR ycircumflex
ENCODING 375
SWIDTH 556 0
DWIDTH 7 0
BBX 9 14 0 -3
BITMAP
0E00
1B00
0000
3180
3180
3300
3300
3600
3600
1C00
1800
3000
6000
C000
ENDCHAR
STARTCHAR Ydieresis
ENCODING 376
SWIDTH 667 0
DWIDTH 10 0
BBX 9 12 3 0
BITMAP
3600
3600
0000
C180
C300
6600
6C00
7800
3000
6000
6000
6000
ENDCHAR
STARTCHAR Zacute
ENCODING 377
SWIDTH 611 0
DWIDTH 9 0
BBX 11 14 0 0
BITMAP
0180
0300
0000
1FE0
00C0
0180
0300
0600
0C00
1800
3000
6000
C000
FF00
ENDCHAR
STARTCHAR zacute
ENCODING 378
SWIDTH 500 0
DWIDTH 6 0
BBX 8 11 0 0
BITMAP
06
0C
00
3F
06
0C
18
30
60
C0
FC
ENDCHAR
STARTCHAR Zdotaccent
ENCODING 379
SWIDTH 611 0
DWIDTH 9 0
BBX 11 14 0 0
BITMAP
0300
0300
0000
1FE0
00C0
0180
0300
0600
0C00
1800
3000
6000
C000
FF00
ENDCHAR
STARTCHAR zdotaccent
ENCODING 380
SWIDTH 500 0
DWIDTH 6 0
BBX 8 11 0 0
BITMAP
0C
0C
00
3F
06
0C
18
30
60
C0
FC
ENDCHAR
STARTCHAR Zcaron
ENCODING 381
SWIDTH 611 0
DWIDTH 9 0
BBX 11 12 0 0
BITMAP
06C0
0380
0000
1FE0
00C0
0180
0700
0E00
1800
3000
6000
FF00
ENDCHAR
STARTCHAR zcaron
ENCODING 382
SWIDTH 500 0
DWIDTH 6 0
BBX 8 11 0 0
BITMAP
1B
0E
00
3F
06
0C
18
30
60
C0
FC
ENDCHAR
STARTCHAR uni0186
ENCODING 390
SWIDTH 722 0
DWIDTH 11 0
BBX 10 11 2 0
BITMAP
0F00
3980
60C0
00C0
00C0
00C0
0180
0180
C300
CE00
7800
ENDCHAR
STARTCHAR uni0189
ENCODING 393
SWIDTH 722 0
DWIDTH 11 0
BBX 11 11 1 0
BITMAP
1F80
18C0
1860
3060
3060
F860
60C0
60C0
C180
C700
FC00
ENDCHAR
STARTCHAR uni018E
ENCODING 398
SWIDTH 667 0
DWIDTH 9 0
BBX 10 11 1 0
BITMAP
1FC0
00C0
0180
0180
0180
7F00
0300
0300
0600
0600
FE00
ENDCHAR
STARTCHAR florin
ENCODING 402
SWIDTH 556 0
DWIDTH 8 0
BBX 10 13 0 -3
BITMAP
0380
06C0
0C00
3F80
0C00
0C00
1800
1800
1800
3000
3000
E000
C000
ENDCHAR
STARTCHAR uni0197
ENCODING 407
SWIDTH 278 0
DWIDTH 4 0
BBX 5 11 1 0
BITMAP
18
18
18
30
30
F8
60
60
60
C0
C0
ENDCHAR
STARTCHAR uni019A
ENCODING 410
SWIDTH 278 0
DWIDTH 4 0
BBX 5 11 1 0
BITMAP
18
18
30
30
30
F8
60
60
60
C0
C0
ENDCHAR
STARTCHAR uni019D
ENCODING 413
SWIDTH 722 0
DWIDTH 11 0
BBX 14 14 -1 -3
BITMAP
060C
060C
070C
0F18
0D98
0D98
19B0
18B0
1870
3060
3060
3000
E000
C000
ENDCHAR
STARTCHAR uni019F
ENCODING 415
SWIDTH 778 0
DWIDTH 12 0
BBX 11 11 2 0
BITMAP
0780
1CC0
3060
6060
6060
FFE0
C0C0
C0C0
C180
6700
3C00
ENDCHAR
STARTCHAR Ohorn
ENCODING 416
SWIDTH 778 0
DWIDTH 12 0
BBX 13 11 2 0
BITMAP
07B8
1CD8
3070
6060
6060
C060
C0C0
C0C0
C180
6700
3C00
ENDCHAR
STARTCHAR ohorn
ENCODING 417
SWIDTH 611 0
DWIDTH 8 0
BBX 11 8 1 0
BITMAP
1EE0
3360
63C0
6300
C600
C600
CC00
7800
ENDCHAR
STARTCHAR Uhorn
ENCODING 431
SWIDTH 722 0
DWIDTH 11 0
BBX 13 11 2 0
BITMAP
3078
3078
3070
60C0
60C0
60C0
C180
C180
C180
C300
7E00
ENDCHAR
STARTCHAR uhorn
ENCODING 432
SWIDTH 611 0
DWIDTH 9 0
BBX 11 8 1 0
BITMAP
31E0
31E0
61C0
6300
6300
C600
CE00
7600
ENDCHAR
STARTCHAR uni01B5
ENCODING 437
SWIDTH 611 0
DWIDTH 9 0
BBX 11 11 0 0
BITMAP
1FE0
00C0
0180
0300
0600
1F00
1800
3000
6000
C000
FF00
ENDCHAR
STARTCHAR uni01B6
ENCODING 438
SWIDTH 500 0
DWIDTH 6 0
BBX 8 8 0 0
BITMAP
3F
06
0C
3E
30
60
C0
FC
ENDCHAR
STARTCHAR uni01BB
ENCODING 443
SWIDTH 556 0
DWIDTH 8 0
BBX 8 11 1 0
BITMAP
3E
63
63
03
07
FF
3C
70
E0
C0
FE
ENDCHAR
STARTCHAR uni01BC
ENCODING 444
SWIDTH 556 0
DWIDTH 8 0
BBX 8 11 1 0
BITMAP
3F
30
30
60
7C
0E
06
06
C6
CC
78
ENDCHAR
STARTCHAR uni01C0
ENCODING 448
SWIDTH 280 0
DWIDTH 4 0
BBX 6 14 0 -3
BITMAP
0C
0C
0C
18
18
18
30
30
30
60
60
60
C0
C0
ENDCHAR
STARTCHAR uni01C2
ENCODING 450
SWIDTH 584 0
DWIDTH 9 0
BBX 8 14 2 -2
BITMAP
06
06
06
0C
0C
0C
7F
18
FE
30
30
30
60
60
ENDCHAR
STARTCHAR uni01C3
ENCODING 451
SWIDTH 333 0
DWIDTH 5 0
BBX 5 11 2 0
BITMAP
18
18
30
30
30
60
60
40
00
C0
C0
ENDCHAR
STARTCHAR uni01CD
ENCODING 461
SWIDTH 722 0
DWIDTH 9 0
BBX 9 14 0 0
BITMAP
1B00
0E00
0000
0300
0700
0D80
0D80
1980
1980
3180
7F80
6180
C180
C180
ENDCHAR
STARTCHAR uni01CE
ENCODING 462
SWIDTH 556 0
DWIDTH 8 0
BBX 8 11 1 0
BITMAP
36
1C
00
1E
33
03
3E
66
C6
CC
76
ENDCHAR
STARTCHAR uni01CF
ENCODING 463
SWIDTH 278 0
DWIDTH 4 0
BBX 6 14 1 0
BITMAP
6C
38
00
18
18
18
30
30
30
60
60
60
C0
C0
ENDCHAR
STARTCHAR uni01D0
ENCODING 464
SWIDTH 278 0
DWIDTH 4 0
BBX 5 11 1 0
BITMAP
D8
70
00
30
30
30
60
60
60
C0
C0
ENDCHAR
STARTCHAR uni01D1
ENCODING 465
SWIDTH 778 0
DWIDTH 12 0
BBX 11 14 2 0
BITMAP
0D80
0700
0000
0780
1CC0
3060
6060
6060
C060
C0C0
C0C0
C180
6700
3C00
ENDCHAR
STARTCHAR uni01D2
ENCODING 466
SWIDTH 611 0
DWIDTH 8 0
BBX 8 11 1 0
BITMAP
36
1C
00
1E
33
63
63
C6
C6
CC
78
ENDCHAR
STARTCHAR uni01D3
ENCODING 467
SWIDTH 722 0
DWIDTH 11 0
BBX 11 14 2 0
BITMAP
0D80
0700
0000
3060
3060
3060
60C0
60C0
60C0
C180
C180
C180
C300
7E00
ENDCHAR
STARTCHAR uni01D4
ENCODING 468
SWIDTH 611 0
DWIDTH 9 0
BBX 9 11 1 0
BITMAP
1B00
0E00
0000
3180
3180
6180
6300
6300
C600
CE00
7600
ENDCHAR
STARTCHAR uni01D5
ENCODING 469
SWIDTH 722 0
DWIDTH 11 0
BBX 11 16 2 0
BITMAP
0F80
0000
0CC0
0CC0
0000
3060
3060
3060
60C0
60C0
60C0
C180
C180
C180
C300
7E00
ENDCHAR
STARTCHAR uni01D6
ENCODING 470
SWIDTH 611 0
DWIDTH 9 0
BBX 9 13 1 0
BITMAP
1F00
0000
1B00
1B00
0000
3180
3180
6180
6300
6300
C600
CE00
7600
ENDCHAR
STARTCHAR uni01D7
ENCODING 471
SWIDTH 722 0
DWIDTH 11 0
BBX 11 17 2 0
BITMAP
0300
0600
0000
0CC0
0CC0
0000
3060
3060
3060
60C0
60C0
60C0
C180
C180
C180
C300
7E00
ENDCHAR
STARTCHAR uni01D8
ENCODING 472
SWIDTH 611 0
DWIDTH 9 0
BBX 9 14 1 0
BITMAP
0600
0C00
0000
1B00
1B00
0000
3180
3180
6180
6300
6300
C600
CE00
7600
ENDCHAR
STARTCHAR uni01D9
ENCODING 473
SWIDTH 722 0
DWIDTH 11 0
BBX 11 17 2 0
BITMAP
0D80
0700
0000
0CC0
0CC0
0000
3060
3060
3060
60C0
60C0
60C0
C180
C180
C180
C300
7E00
ENDCHAR
STARTCHAR uni01DA
ENCODING 474
SWIDTH 611 0
DWIDTH 9 0
BBX 9 14 1 0
BITMAP
1B00
0E00
0000
1B00
1B00
0000
3180
3180
6180
6300
6300
C600
CE00
7600
ENDCHAR
STARTCHAR uni01DB
ENCODING 475
SWIDTH 722 0
DWIDTH 11 0
BBX 11 17 2 0
BITMAP
0600
0300
0000
0CC0
0CC0
0000
3060
3060
3060
60C0
60C0
60C0
C180
C180
C180
C300
7E00
ENDCHAR
STARTCHAR uni01DC
ENCODING 476
SWIDTH 611 0
DWIDTH 9 0
BBX 9 14 1 0
BITMAP
1800
0C00
0000
1B00
1B00
0000
3180
3180
6180
6300
6300
C600
CE00
7600
ENDCHAR
STARTCHAR uni01DD
ENCODING 477
SWIDTH 556 0
DWIDTH 8 0
BBX 8 8 1 0
BITMAP
1E
33
03
03
7E
C6
CC
78
ENDCHAR
STARTCHAR uni01DE
ENCODING 478
SWIDTH 722 0
DWIDTH 9 0
BBX 10 16 0 0
BITMAP
0F80
0000
0CC0
0CC0
0000
0300
0700
0D80
0D80
1980
1980
3180
7F80
6180
C180
C180
ENDCHAR
STARTCHAR uni01DF
ENCODING 479
SWIDTH 556 0
DWIDTH 8 0
BBX 8 13 1 0
BITMAP
1F
00
1B
1B
00
1E
33
03
3E
66
C6
CC
76
ENDCHAR
STARTCHAR uni01E0
ENCODING 480
SWIDTH 722 0
DWIDTH 9 0
BBX 9 16 0 0
BITMAP
1F00
0000
0600
0600
0000
0300
0700
0D80
0D80
1980
1980
3180
7F80
6180
C180
C180
ENDCHAR
STARTCHAR uni01E1
ENCODING 481
SWIDTH 556 0
DWIDTH 8 0
BBX 8 13 1 0
BITMAP
3E
00
0C
0C
00
1E
33
03
3E
66
C6
CC
76
ENDCHAR
STARTCHAR uni01E2
ENCODING 482
SWIDTH 1000 0
DWIDTH 14 0
BBX 17 13 0 0
BITMAP
01F000
000000
03FF80
066000
0C6000
0CC000
18C000
18FE00
318000
7F8000
618000
C30000
C3FC00
ENDCHAR
STARTCHAR uni01E3
ENCODING 483
SWIDTH 889 0
DWIDTH 13 0
BBX 13 10 1 0
BITMAP
07C0
0000
1EF0
3398
0318
3FF0
6600
C600
CE60
77C0
ENDCHAR
STARTCHAR uni01E4
ENCODING 484
SWIDTH 778 0
DWIDTH 11 0
BBX 12 11 2 0
BITMAP
0780
1CC0
3060
6000
6000
C3C0
C180
C1F0
C300
6700
3D00
ENDCHAR
STARTCHAR uni01E5
ENCODING 485
SWIDTH 611 0
DWIDTH 9 0
BBX 10 11 0 -3
BITMAP
0EC0
19C0
30C0
3180
6180
6180
6700
3B00
FFC0
C600
7C00
ENDCHAR
STARTCHAR Gcaron
ENCODING 486
SWIDTH 778 0
DWIDTH 11 0
BBX 11 14 2 0
BITMAP
0D80
0700
0000
0780
1CC0
3060
6000
6000
C3C0
C180
C180
C300
6700
3D00
ENDCHAR
STARTCHAR gcaron
ENCODING 487
SWIDTH 611 0
DWIDTH 9 0
BBX 10 14 0 -3
BITMAP
0D80
0700
0000
0EC0
19C0
30C0
3180
6180
6180
6700
3B00
0300
C600
7C00
ENDCHAR
STARTCHAR uni01E8
ENCODING 488
SWIDTH 722 0
DWIDTH 10 0
BBX 11 14 1 0
BITMAP
0D80
0700
0000
1860
18C0
1980
3300
3600
3C00
7600
6600
6300
C300
C180
ENDCHAR
STARTCHAR uni01E9
ENCODING 489
SWIDTH 556 0
DWIDTH 8 0
BBX 8 14 1 0
BITMAP
6C
38
00
18
18
30
33
36
3C
78
6C
6C
CC
CC
ENDCHAR
STARTCHAR uni01EA
ENCODING 490
SWIDTH 778 0
DWIDTH 12 0
BBX 11 14 2 -3
BITMAP
0780
1CC0
3060
6060
6060
C060
C0C0
C0C0
C180
6700
3C00
1800
1000
1C00
ENDCHAR
STARTCHAR uni01EB
ENCODING 491
SWIDTH 611 0
DWIDTH 8 0
BBX 8 11 1 -3
BITMAP
1E
33
63
63
C6
C6
CC
78
30
20
38
ENDCHAR
STARTCHAR uni01EC
ENCODING 492
SWIDTH 778 0
DWIDTH 12 0
BBX 11 16 2 -3
BITMAP
0F80
0000
0780
1CC0
3060
6060
6060
C060
C0C0
C0C0
C180
6700
3C00
1800
1000
1C00
ENDCHAR
STARTCHAR uni01ED
ENCODING 493
SWIDTH 611 0
DWIDTH 8 0
BBX 8 13 1 -3
BITMAP
3E
00
1E
33
63
63
C6
C6
CC
78
30
20
38
ENDCHAR
STARTCHAR uni01F0
ENCODING 496
SWIDTH 278 0
DWIDTH 4 0
BBX 7 14 -1 -3
BITMAP
36
1C
00
0C
0C
0C
18
18
18
30
30
30
E0
C0
ENDCHAR
STARTCHAR uni01F4
ENCODING 500
SWIDTH 778 0
DWIDTH 11 0
BBX 11 14 2 0
BITMAP
0300
0600
0000
0780
1CC0
3060
6000
6000
C3C0
C180
C180
C300
6700
3D00
ENDCHAR
STARTCHAR uni01F5
ENCODING 501
SWIDTH 611 0
DWIDTH 9 0
BBX 10 14 0 -3
BITMAP
0300
0600
0000
0EC0
19C0
30C0
3180
6180
6180
6700
3B00
0300
C600
7C00
ENDCHAR
STARTCHAR uni01F8
ENCODING 504
SWIDTH 722 0
DWIDTH 11 0
BBX 12 14 1 0
BITMAP
0600
0300
0000
1830
1830
1C30
3C60
3660
3660
66C0
62C0
63C0
C180
C180
ENDCHAR
STARTCHAR uni01F9
ENCODING 505
SWIDTH 611 0
DWIDTH 9 0
BBX 9 11 1 0
BITMAP
1800
0C00
0000
3700
3980
3180
6300
6300
6300
C600
C600
ENDCHAR
STARTCHAR Aringacute
ENCODING 506
SWIDTH 722 0
DWIDTH 9 0
BBX 9 17 0 0
BITMAP
0300
0600
0000
0300
0480
0300
0300
0700
0D80
0D80
1980
1980
3180
7F80
6180
C180
C180
ENDCHAR
STARTCHAR aringacute
ENCODING 507
SWIDTH 556 0
DWIDTH 8 0
BBX 8 14 1 0
BITMAP
06
0C
00
06
09
06
1E
33
03
3E
66
C6
CC
76
ENDCHAR
STARTCHAR AEacute
ENCODING 508
SWIDTH 1000 0
DWIDTH 14 0
BBX 17 14 0 0
BITMAP
006000
00C000
000000
03FF80
066000
0C6000
0CC000
18C000
18FE00
318000
7F8000
618000
C30000
C3FC00
ENDCHAR
STARTCHAR aeacute
ENCODING 509
SWIDTH 889 0
DWIDTH 13 0
BBX 13 11 1 0
BITMAP
0180
0300
0000
1EF0
3398
0318
3FF0
6600
C600
CE60
77C0
ENDCHAR
STARTCHAR Oslashacute
ENCODING 510
SWIDTH 778 0
DWIDTH 12 0
BBX 15 14 0 0
BITMAP
0060
00C0
0000
01E6
073C
0C38
1878
18D8
3398
3630
3C30
3860
79C0
CF00
ENDCHAR
STARTCHAR oslashacute
ENCODING 511
SWIDTH 611 0
DWIDTH 8 0
BBX 10 11 0 0
BITMAP
0300
0600
0000
0F40
1980
3380
3580
6B00
7300
6600
BC00
ENDCHAR
STARTCHAR Scommaaccent
ENCODING 536
SWIDTH 667 0
DWIDTH 10 0
BBX 10 16 1 -5
BITMAP
0F80
18C0
30C0
3800
1E00
0700
0380
0180
C180
C300
7E00
0000
0C00
0C00
0400
1800
ENDCHAR
STARTCHAR scommaaccent
ENCODING 537
SWIDTH 556 0
DWIDTH 8 0
BBX 8 13 1 -5
BITMAP
1E
33
30
1C
06
C6
CC
78
00
18
18
08
30
ENDCHAR
STARTCHAR Tcommaaccent
ENCODING 538
SWIDTH 611 0
DWIDTH 8 0
BBX 8 16 3 -5
BITMAP
FF
18
18
30
30
30
60
60
60
C0
C0
00
60
60
20
C0
ENDCHAR
STARTCHAR tcommaaccent
ENCODING 539
SWIDTH 333 0
DWIDTH 5 0
BBX 6 15 1 -5
BITMAP
18
18
7C
30
30
60
60
C0
C0
60
00
60
60
20
C0
ENDCHAR
STARTCHAR uni021E
ENCODING 542
SWIDTH 722 0
DWIDTH 10 0
BBX 11 14 1 0
BITMAP
0D80
0700
0000
1860
1860
1860
30C0
30C0
3FC0
6180
6180
6180
C300
C300
ENDCHAR
STARTCHAR uni021F
ENCODING 543
SWIDTH 611 0
DWIDTH 9 0
BBX 9 14 1 0
BITMAP
6C00
3800
0000
1800
1800
3000
3700
3B80
3180
6300
6300
6300
C600
C600
ENDCHAR
STARTCHAR uni0226
ENCODING 550
SWIDTH 722 0
DWIDTH 9 0
BBX 9 14 0 0
BITMAP
0600
0600
0000
0300
0700
0D80
0D80
1980
1980
3180
7F80
6180
C180
C180
ENDCHAR
STARTCHAR uni0227
ENCODING 551
SWIDTH 556 0
DWIDTH 8 0
BBX 8 11 1 0
BITMAP
0C
0C
00
1E
33
03
3E
66
C6
CC
76
ENDCHAR
STARTCHAR uni0228
ENCODING 552
SWIDTH 667 0
DWIDTH 9 0
BBX 10 14 1 -3
BITMAP
1FC0
1800
1800
3000
3000
3F80
6000
6000
6000
C000
FE00
1800
D800
7000
ENDCHAR
STARTCHAR uni0229
ENCODING 553
SWIDTH 556 0
DWIDTH 8 0
BBX 8 11 1 -3
BITMAP
1E
33
63
7E
C0
C0
CC
78
18
D8
70
ENDCHAR
STARTCHAR uni022A
ENCODING 554
SWIDTH 778 0
DWIDTH 12 0
BBX 11 16 2 0
BITMAP
0F80
0000
0CC0
0CC0
0000
0780
1CC0
3060
6060
6060
C060
C0C0
C0C0
C180
6700
3C00
ENDCHAR
STARTCHAR uni022B
ENCODING 555
SWIDTH 611 0
DWIDTH 8 0
BBX 8 13 1 0
BITMAP
1F
00
1B
1B
00
1E
33
63
63
C6
C6
CC
78
ENDCHAR
STARTCHAR uni022C
ENCODING 556
SWIDTH 778 0
DWIDTH 12 0
BBX 11 16 2 0
BITMAP
0F80
0000
0340
0580
0000
0780
1CC0
3060
6060
6060
C060
C0C0
C0C0
C180
6700
3C00
ENDCHAR
STARTCHAR uni022D
ENCODING 557
SWIDTH 611 0
DWIDTH 8 0
BBX 8 13 1 0
BITMAP
1F
00
0D
16
00
1E
33
63
63
C6
C6
CC
78
ENDCHAR
STARTCHAR uni022E
ENCODING 558
SWIDTH 778 0
DWIDTH 12 0
BBX 11 14 2 0
BITMAP
0600
0600
0000
0780
1CC0
3060
6060
6060
C060
C0C0
C0C0
C180
6700
3C00
ENDCHAR
STARTCHAR uni022F
ENCODING 559
SWIDTH 611 0
DWIDTH 8 0
BBX 8 11 1 0
BITMAP
0C
0C
00
1E
33
63
63
C6
C6
CC
78
ENDCHAR
STARTCHAR uni0230
ENCODING 560
SWIDTH 778 0
DWIDTH 12 0
BBX 11 16 2 0
BITMAP
0F80
0000
0600
0600
0000
0780
1CC0
3060
6060
6060
C060
C0C0
C0C0
C180
6700
3C00
ENDCHAR
STARTCHAR uni0231
ENCODING 561
SWIDTH 611 0
DWIDTH 8 0
BBX 8 13 1 0
BITMAP
3E
00
0C
0C
00
1E
33
63
63
C6
C6
CC
78
ENDCHAR
STARTCHAR uni0232
ENCODING 562
SWIDTH 667 0
DWIDTH 10 0
BBX 10 13 3 0
BITMAP
3E00
0000
C0C0
C180
C300
6600
6C00
7800
3000
3000
6000
6000
6000
ENDCHAR
STARTCHAR uni0233
ENCODING 563
SWIDTH 556 0
DWIDTH 7 0
BBX 9 13 0 -3
BITMAP
1F00
0000
3180
3180
3300
3300
3600
3600
1C00
1800
3000
6000
C000
ENDCHAR
STARTCHAR uni0250
ENCODING 592
SWIDTH 556 0
DWIDTH 8 0
BBX 8 8 1 0
BITMAP
6E
33
63
66
7C
C0
CC
78
ENDCHAR
STARTCHAR uni0259
ENCODING 601
SWIDTH 556 0
DWIDTH 8 0
BBX 8 8 1 0
BITMAP
1E
33
03
03
7E
C6
CC
78
ENDCHAR
STARTCHAR uni025F
ENCODING 607
SWIDTH 333 0
DWIDTH 5 0
BBX 7 11 1 -3
BITMAP
06
06
0C
0C
0C
18
18
7C
30
30
E0
ENDCHAR
STARTCHAR uni0265
ENCODING 613
SWIDTH 611 0
DWIDTH 9 0
BBX 9 11 1 -3
BITMAP
3180
3180
6300
6300
6300
C600
EE00
7600
0600
0C00
0C00
ENDCHAR
STARTCHAR uni0275
ENCODING 629
SWIDTH 611 0
DWIDTH 8 0
BBX 8 8 1 0
BITMAP
1E
33
63
FF
C6
C6
CC
78
ENDCHAR
STARTCHAR uni0279
ENCODING 633
SWIDTH 389 0
DWIDTH 6 0
BBX 7 8 1 0
BITMAP
06
06
0C
0C
0C
18
F8
D8
ENDCHAR
STARTCHAR uni0287
ENCODING 647
SWIDTH 333 0
DWIDTH 5 0
BBX 6 10 1 0
BITMAP
18
0C
0C
18
18
30
30
F8
60
60
ENDCHAR
STARTCHAR uni0289
ENCODING 649
SWIDTH 611 0
DWIDTH 9 0
BBX 9 8 1 0
BITMAP
3180
3180
6180
FF80
6300
C600
CE00
7600
ENDCHAR
STARTCHAR uni028C
ENCODING 652
SWIDTH 556 0
DWIDTH 8 0
BBX 8 8 2 0
BITMAP
06
0E
1A
33
33
63
C3
C3
ENDCHAR
STARTCHAR uni028D
ENCODING 653
SWIDTH 778 0
DWIDTH 11 0
BBX 10 8 2 0
BITMAP
1980
1980
3BC0
6AC0
6EC0
CCC0
CCC0
CCC0
ENDCHAR
STARTCHAR uni028E
ENCODING 654
SWIDTH 556 0
DWIDTH 7 0
BBX 9 11 0 0
BITMAP
0180
0300
0600
0C00
1C00
3600
3600
6600
6600
C600
C600
ENDCHAR
STARTCHAR uni029E
ENCODING 670
SWIDTH 556 0
DWIDTH 8 0
BBX 8 11 1 -3
BITMAP
33
33
36
36
1E
3C
6C
CC
0C
18
18
ENDCHAR
STARTCHAR uni02BB
ENCODING 699
SWIDTH 278 0
DWIDTH 5 0
BBX 3 3 4 8
BITMAP
60
C0
E0
ENDCHAR
STARTCHAR afii57929
ENCODING 700
SWIDTH 278 0
DWIDTH 5 0
BBX 3 3 4 8
BITMAP
E0
60
C0
ENDCHAR
STARTCHAR afii64937
ENCODING 701
SWIDTH 278 0
DWIDTH 5 0
BBX 3 3 4 8
BITMAP
E0
C0
60
ENDCHAR
STARTCHAR circumflex
ENCODING 710
SWIDTH 333 0
DWIDTH 5 0
BBX 5 2 3 9
BITMAP
70
D8
ENDCHAR
STARTCHAR caron
ENCODING 711
SWIDTH 333 0
DWIDTH 5 0
BBX 5 2 3 9
BITMAP
D8
70
ENDCHAR
STARTCHAR uni02C8
ENCODING 712
SWIDTH 238 0
DWIDTH 4 0
BBX 2 3 4 8
BITMAP
C0
C0
80
ENDCHAR
STARTCHAR macron
ENCODING 713
SWIDTH 333 0
DWIDTH 5 0
BBX 5 1 3 10
BITMAP
F8
ENDCHAR
STARTCHAR uni02CA
ENCODING 714
SWIDTH 333 0
DWIDTH 5 0
BBX 3 2 4 9
BITMAP
60
C0
ENDCHAR
STARTCHAR uni02CB
ENCODING 715
SWIDTH 333 0
DWIDTH 5 0
BBX 3 2 4 9
BITMAP
C0
60
ENDCHAR
STARTCHAR uni02CD
ENCODING 717
SWIDTH 333 0
DWIDTH 5 0
BBX 5 1 3 -2
BITMAP
F8
ENDCHAR
STARTCHAR uni02CE
ENCODING 718
SWIDTH 333 0
DWIDTH 5 0
BBX 3 2 4 -3
BITMAP
C0
60
ENDCHAR
STARTCHAR uni02CF
ENCODING 719
SWIDTH 333 0
DWIDTH 5 0
BBX 3 2 4 -3
BITMAP
60
C0
ENDCHAR
STARTCHAR breve
ENCODING 728
SWIDTH 333 0
DWIDTH 4 0
BBX 4 2 3 9
BITMAP
90
F0
ENDCHAR
STARTCHAR dotaccent
ENCODING 729
SWIDTH 333 0
DWIDTH 4 0
BBX 2 2 4 9
BITMAP
C0
C0
ENDCHAR
STARTCHAR ring
ENCODING 730
SWIDTH 333 0
DWIDTH 5 0
BBX 5 3 3 8
BITMAP
70
D8
70
ENDCHAR
STARTCHAR ogonek
ENCODING 731
SWIDTH 333 0
DWIDTH 4 0
BBX 3 4 0 -3
BITMAP
60
C0
80
E0
ENDCHAR
STARTCHAR tilde
ENCODING 732
SWIDTH 333 0
DWIDTH 5 0
BBX 5 2 3 9
BITMAP
68
B0
ENDCHAR
STARTCHAR hungarumlaut
ENCODING 733
SWIDTH 333 0
DWIDTH 6 0
BBX 6 2 3 9
BITMAP
6C
D8
ENDCHAR
STARTCHAR uni02EE
ENCODING 750
SWIDTH 500 0
DWIDTH 7 0
BBX 6 3 4 8
BITMAP
FC
6C
D8
ENDCHAR
STARTCHAR uni037E
ENCODING 894
SWIDTH 333 0
DWIDTH 5 0
BBX 5 10 1 -2
BITMAP
18
18
00
00
00
00
60
60
20
C0
ENDCHAR
STARTCHAR tonos
ENCODING 900
SWIDTH 333 0
DWIDTH 5 0
BBX 3 2 4 9
BITMAP
60
C0
ENDCHAR
STARTCHAR dieresistonos
ENCODING 901
SWIDTH 333 0
DWIDTH 5 0
BBX 5 5 3 9
BITMAP
30
60
00
D8
D8
ENDCHAR
STARTCHAR anoteleia
ENCODING 903
SWIDTH 278 0
DWIDTH 4 0
BBX 2 2 2 3
BITMAP
C0
C0
ENDCHAR
STARTCHAR mu
ENCODING 956
SWIDTH 611 0
DWIDTH 9 0
BBX 10 11 0 -3
BITMAP
18C0
18C0
30C0
3180
3180
6300
6700
7B00
C000
C000
C000
ENDCHAR
STARTCHAR uni1E00
ENCODING 7680
SWIDTH 722 0
DWIDTH 9 0
BBX 9 15 0 -4
BITMAP
0300
0700
0D80
0D80
1980
1980
3180
7F80
6180
C180
C180
0000
1C00
3600
1C00
ENDCHAR
STARTCHAR uni1E01
ENCODING 7681
SWIDTH 556 0
DWIDTH 8 0
BBX 8 12 1 -4
BITMAP
1E
33
03
3E
66
C6
CC
76
00
38
6C
38
ENDCHAR
STARTCHAR uni1E02
ENCODING 7682
SWIDTH 722 0
DWIDTH 10 0
BBX 10 14 1 0
BITMAP
0600
0600
0000
1F80
18C0
18C0
30C0
3180
3F00
6180
6180
6180
C300
FE00
ENDCHAR
STARTCHAR uni1E03
ENCODING 7683
SWIDTH 611 0
DWIDTH 9 0
BBX 9 14 1 0
BITMAP
1800
1800
0000
1800
1800
3000
3700
3980
7180
6180
6300
C300
E600
DC00
ENDCHAR
STARTCHAR uni1E04
ENCODING 7684
SWIDTH 722 0
DWIDTH 10 0
BBX 10 14 1 -3
BITMAP
1F80
18C0
18C0
30C0
3180
3F00
6180
6180
6180
C300
FE00
0000
1800
1800
ENDCHAR
STARTCHAR uni1E05
ENCODING 7685
SWIDTH 611 0
DWIDTH 9 0
BBX 9 14 1 -3
BITMAP
1800
1800
3000
3700
3980
7180
6180
6300
C300
E600
DC00
0000
1800
1800
ENDCHAR
STARTCHAR uni1E06
ENCODING 7686
SWIDTH 722 0
DWIDTH 10 0
BBX 10 13 1 -2
BITMAP
1F80
18C0
18C0
30C0
3180
3F00
6180
6180
6180
C300
FE00
0000
3E00
ENDCHAR
STARTCHAR uni1E07
ENCODING 7687
SWIDTH 611 0
DWIDTH 9 0
BBX 9 13 1 -2
BITMAP
1800
1800
3000
3700
3980
7180
6180
6300
C300
E600
DC00
0000
7C00
ENDCHAR
STARTCHAR uni1E08
ENCODING 7688
SWIDTH 722 0
DWIDTH 11 0
BBX 10 17 2 -3
BITMAP
0600
0C00
0000
0780
1CC0
30C0
6000
6000
C000
C000
C000
C180
6700
3C00
1800
D800
7000
ENDCHAR
STARTCHAR uni1E09
ENCODING 7689
SWIDTH 556 0
DWIDTH 8 0
BBX 9 14 0 -3
BITMAP
0600
0C00
0000
0F00
1980
3180
3000
6000
6300
6600
3C00
1800
D800
7000
ENDCHAR
STARTCHAR uni1E0A
ENCODING 7690
SWIDTH 722 0
DWIDTH 11 0
BBX 11 14 1 0
BITMAP
0600
0600
0000
1F80
18C0
1860
3060
3060
3060
60C0
60C0
6180
C700
FC00
ENDCHAR
STARTCHAR uni1E0B
ENCODING 7691
SWIDTH 611 0
DWIDTH 9 0
BBX 10 14 1 0
BITMAP
0300
0300
0000
00C0
00C0
0180
1D80
3380
6180
6300
C300
C300
CE00
7600
ENDCHAR
STARTCHAR uni1E0C
ENCODING 7692
SWIDTH 722 0
DWIDTH 11 0
BBX 11 14 1 -3
BITMAP
1F80
18C0
1860
3060
3060
3060
60C0
60C0
6180
C700
FC00
0000
1800
1800
ENDCHAR
STARTCHAR uni1E0D
ENCODING 7693
SWIDTH 611 0
DWIDTH 9 0
BBX 10 14 1 -3
BITMAP
00C0
00C0
0180
1D80
3380
6180
6300
C300
C300
CE00
7600
0000
1800
1800
ENDCHAR
STARTCHAR uni1E0E
ENCODING 7694
SWIDTH 722 0
DWIDTH 11 0
BBX 11 13 1 -2
BITMAP
1F80
18C0
1860
3060
3060
3060
60C0
60C0
6180
C700
FC00
0000
3E00
ENDCHAR
STARTCHAR uni1E0F
ENCODING 7695
SWIDTH 611 0
DWIDTH 9 0
BBX 10 13 1 -2
BITMAP
00C0
00C0
0180
1D80
3380
6180
6300
C300
C300
CE00
7600
0000
3E00
ENDCHAR
STARTCHAR uni1E10
ENCODING 7696
SWIDTH 722 0
DWIDTH 11 0
BBX 11 14 1 -3
BITMAP
1F80
18C0
1860
3060
3060
3060
60C0
60C0
6180
C700
FC00
0C00
6C00
3800
ENDCHAR
STARTCHAR uni1E11
ENCODING 7697
SWIDTH 611 0
DWIDTH 9 0
BBX 10 14 1 -3
BITMAP
00C0
00C0
0180
1D80
3380
6180
6300
C300
C300
CE00
7E00
0C00
6C00
3800
ENDCHAR
STARTCHAR uni1E12
ENCODING 7698
SWIDTH 722 0
DWIDTH 11 0
BBX 11 14 1 -3
BITMAP
1F80
18C0
1860
3060
3060
3060
60C0
60C0
6180
C700
FC00
0000
1C00
3600
ENDCHAR
STARTCHAR uni1E13
ENCODING 7699
SWIDTH 611 0
DWIDTH 9 0
BBX 10 14 1 -3
BITMAP
00C0
00C0
0180
1D80
3380
6180
6300
C300
C300
CE00
7600
0000
1C00
3600
ENDCHAR
STARTCHAR uni1E14
ENCODING 7700
SWIDTH 667 0
DWIDTH 9 0
BBX 10 16 1 0
BITMAP
0C00
0600
0000
1F00
0000
1FC0
1800
1800
3000
3000
3F80
6000
6000
6000
C000
FE00
ENDCHAR
STARTCHAR uni1E15
ENCODING 7701
SWIDTH 556 0
DWIDTH 8 0
BBX 8 13 1 0
BITMAP
18
0C
00
3E
00
1E
33
63
7E
C0
C0
CC
78
ENDCHAR
STARTCHAR uni1E16
ENCODING 7702
SWIDTH 667 0
DWIDTH 9 0
BBX 10 16 1 0
BITMAP
0600
0C00
0000
1F00
0000
1FC0
1800
1800
3000
3000
3F80
6000
6000
6000
C000
FE00
ENDCHAR
STARTCHAR uni1E17
ENCODING 7703
SWIDTH 556 0
DWIDTH 8 0
BBX 8 13 1 0
BITMAP
0C
18
00
3E
00
1E
33
63
7E
C0
C0
CC
78
ENDCHAR
STARTCHAR uni1E18
ENCODING 7704
SWIDTH 667 0
DWIDTH 9 0
BBX 10 14 1 -3
BITMAP
1FC0
1800
1800
3000
3000
3F80
6000
6000
6000
C000
FE00
0000
3800
6C00
ENDCHAR
STARTCHAR uni1E19
ENCODING 7705
SWIDTH 556 0
DWIDTH 8 0
BBX 8 11 1 -3
BITMAP
1E
33
63
7E
C0
C0
CC
78
00
38
6C
ENDCHAR
STARTCHAR uni1E1A
ENCODING 7706
SWIDTH 667 0
DWIDTH 9 0
BBX 10 14 1 -3
BITMAP
1FC0
1800
1800
3000
3000
3F80
6000
6000
6000
C000
FE00
0000
3400
5800
ENDCHAR
STARTCHAR uni1E1B
ENCODING 7707
SWIDTH 556 0
DWIDTH 8 0
BBX 8 11 1 -3
BITMAP
1E
33
63
7E
C0
C0
CC
78
00
68
B0
ENDCHAR
STARTCHAR uni1E1C
ENCODING 7708
SWIDTH 667 0
DWIDTH 9 0
BBX 10 17 1 -3
BITMAP
1200
1E00
0000
1FC0
1800
1800
3000
3000
3F80
6000
6000
6000
C000
FE00
1800
D800
7000
ENDCHAR
STARTCHAR uni1E1D
ENCODING 7709
SWIDTH 556 0
DWIDTH 8 0
BBX 8 14 1 -3
BITMAP
12
1E
00
1E
33
63
7E
C0
C0
CC
78
18
D8
70
ENDCHAR
STARTCHAR uni1E1E
ENCODING 7710
SWIDTH 611 0
DWIDTH 8 0
BBX 10 14 1 0
BITMAP
0C00
0C00
0000
1FC0
1800
1800
3000
3000
3F00
6000
6000
6000
C000
C000
ENDCHAR
STARTCHAR uni1E1F
ENCODING 7711
SWIDTH 333 0
DWIDTH 5 0
BBX 7 14 1 0
BITMAP
18
18
00
0E
18
18
7C
30
30
60
60
60
C0
C0
ENDCHAR
STARTCHAR uni1E20
ENCODING 7712
SWIDTH 778 0
DWIDTH 11 0
BBX 11 13 2 0
BITMAP
0F80
0000
0780
1CC0
3060
6000
6000
C3C0
C180
C180
C300
6700
3D00
ENDCHAR
STARTCHAR uni1E21
ENCODING 7713
SWIDTH 611 0
DWIDTH 9 0
BBX 10 13 0 -3
BITMAP
0F80
0000
0EC0
19C0
30C0
3180
6180
6180
6700
3B00
0300
C600
7C00
ENDCHAR
STARTCHAR uni1E22
ENCODING 7714
SWIDTH 722 0
DWIDTH 10 0
BBX 11 14 1 0
BITMAP
0300
0300
0000
1860
1860
1860
30C0
30C0
3FC0
6180
6180
6180
C300
C300
ENDCHAR
STARTCHAR uni1E23
ENCODING 7715
SWIDTH 611 0
DWIDTH 9 0
BBX 9 14 1 0
BITMAP
1800
1800
0000
1800
1800
3000
3700
3B80
3180
6300
6300
6300
C600
C600
ENDCHAR
STARTCHAR uni1E24
ENCODING 7716
SWIDTH 722 0
DWIDTH 10 0
BBX 11 14 1 -3
BITMAP
1860
1860
1860
30C0
30C0
3FC0
6180
6180
6180
C300
C300
0000
0C00
0C00
ENDCHAR
STARTCHAR uni1E25
ENCODING 7717
SWIDTH 611 0
DWIDTH 9 0
BBX 9 14 1 -3
BITMAP
1800
1800
3000
3700
3B80
3180
6300
6300
6300
C600
C600
0000
1800
1800
ENDCHAR
STARTCHAR uni1E26
ENCODING 7718
SWIDTH 722 0
DWIDTH 10 0
BBX 11 14 1 0
BITMAP
0D80
0D80
0000
1860
1860
1860
30C0
30C0
3FC0
6180
6180
6180
C300
C300
ENDCHAR
STARTCHAR uni1E27
ENCODING 7719
SWIDTH 611 0
DWIDTH 9 0
BBX 9 14 1 0
BITMAP
6C00
6C00
0000
1800
1800
3000
3700
3B80
3180
6300
6300
6300
C600
C600
ENDCHAR
STARTCHAR uni1E28
ENCODING 7720
SWIDTH 722 0
DWIDTH 10 0
BBX 11 14 1 -3
BITMAP
1860
1860
1860
30C0
30C0
3FC0
6180
6180
6180
C300
CF00
0600
3600
1C00
ENDCHAR
STARTCHAR uni1E29
ENCODING 7721
SWIDTH 611 0
DWIDTH 9 0
BBX 9 14 1 -3
BITMAP
1800
1800
3000
3700
3B80
3180
6300
6300
6300
C600
DE00
0C00
6C00
3800
ENDCHAR
STARTCHAR uni1E2A
ENCODING 7722
SWIDTH 722 0
DWIDTH 10 0
BBX 11 14 1 -3
BITMAP
1860
1860
1860
30C0
30C0
3FC0
6180
6180
6180
C300
C300
0000
1200
1E00
ENDCHAR
STARTCHAR uni1E2B
ENCODING 7723
SWIDTH 611 0
DWIDTH 9 0
BBX 9 14 1 -3
BITMAP
1800
1800
3000
3700
3B80
3180
6300
6300
6300
C600
C600
0000
2400
3C00
ENDCHAR
STARTCHAR uni1E2C
ENCODING 7724
SWIDTH 278 0
DWIDTH 4 0
BBX 6 14 0 -3
BITMAP
0C
0C
0C
18
18
18
30
30
30
60
60
00
68
B0
ENDCHAR
STARTCHAR uni1E2D
ENCODING 7725
SWIDTH 278 0
DWIDTH 4 0
BBX 6 14 0 -3
BITMAP
0C
0C
00
18
18
18
30
30
30
60
60
00
68
B0
ENDCHAR
STARTCHAR uni1E2E
ENCODING 7726
SWIDTH 278 0
DWIDTH 4 0
BBX 7 17 1 0
BITMAP
0C
18
00
36
36
00
18
18
18
30
30
30
60
60
60
C0
C0
ENDCHAR
STARTCHAR uni1E2F
ENCODING 7727
SWIDTH 278 0
DWIDTH 4 0
BBX 6 14 1 0
BITMAP
18
30
00
6C
6C
00
30
30
30
60
60
60
C0
C0
ENDCHAR
STARTCHAR uni1E30
ENCODING 7728
SWIDTH 722 0
DWIDTH 10 0
BBX 11 14 1 0
BITMAP
0300
0600
0000
1860
18C0
1980
3300
3600
3C00
7600
6600
6300
C300
C180
ENDCHAR
STARTCHAR uni1E31
ENCODING 7729
SWIDTH 556 0
DWIDTH 8 0
BBX 8 14 1 0
BITMAP
0C
18
00
18
18
30
33
36
3C
78
6C
6C
CC
CC
ENDCHAR
STARTCHAR uni1E32
ENCODING 7730
SWIDTH 722 0
DWIDTH 10 0
BBX 11 14 1 -3
BITMAP
1860
18C0
1980
3300
3600
3C00
7600
6600
6300
C300
C180
0000
0C00
0C00
ENDCHAR
STARTCHAR uni1E33
ENCODING 7731
SWIDTH 556 0
DWIDTH 8 0
BBX 8 14 1 -3
BITMAP
18
18
30
33
36
3C
78
6C
6C
CC
CC
00
30
30
ENDCHAR
STARTCHAR uni1E34
ENCODING 7732
SWIDTH 722 0
DWIDTH 10 0
BBX 11 13 1 -2
BITMAP
1860
18C0
1980
3300
3600
3C00
7600
6600
6300
C300
C180
0000
3E00
ENDCHAR
STARTCHAR uni1E35
ENCODING 7733
SWIDTH 556 0
DWIDTH 8 0
BBX 8 13 1 -2
BITMAP
18
18
30
33
36
3C
78
6C
6C
CC
CC
00
7C
ENDCHAR
STARTCHAR uni1E36
ENCODING 7734
SWIDTH 611 0
DWIDTH 8 0
BBX 7 14 1 -3
BITMAP
18
18
18
30
30
30
60
60
60
C0
FE
00
30
30
ENDCHAR
STARTCHAR uni1E37
ENCODING 7735
SWIDTH 278 0
DWIDTH 4 0
BBX 5 14 1 -3
BITMAP
18
18
30
30
30
60
60
60
60
C0
C0
00
60
60
ENDCHAR
STARTCHAR uni1E38
ENCODING 7736
SWIDTH 611 0
DWIDTH 8 0
BBX 7 16 1 -3
BITMAP
7C
00
18
18
18
30
30
30
60
60
60
C0
FE
00
30
30
ENDCHAR
STARTCHAR uni1E39
ENCODING 7737
SWIDTH 278 0
DWIDTH 4 0
BBX 6 16 1 -3
BITMAP
7C
00
18
18
30
30
30
60
60
60
60
C0
C0
00
60
60
ENDCHAR
STARTCHAR uni1E3A
ENCODING 7738
SWIDTH 611 0
DWIDTH 8 0
BBX 7 13 1 -2
BITMAP
18
18
18
30
30
30
60
60
60
C0
FE
00
7C
ENDCHAR
STARTCHAR uni1E3B
ENCODING 7739
SWIDTH 278 0
DWIDTH 4 0
BBX 6 13 0 -2
BITMAP
0C
0C
18
18
18
30
30
30
30
60
60
00
F8
ENDCHAR
STARTCHAR uni1E3C
ENCODING 7740
SWIDTH 611 0
DWIDTH 8 0
BBX 7 14 1 -3
BITMAP
18
18
18
30
30
30
60
60
60
C0
FE
00
38
6C
ENDCHAR
STARTCHAR uni1E3D
ENCODING 7741
SWIDTH 278 0
DWIDTH 4 0
BBX 6 14 0 -3
BITMAP
0C
0C
18
18
18
30
30
30
30
60
60
00
70
D8
ENDCHAR
STARTCHAR uni1E3E
ENCODING 7742
SWIDTH 833 0
DWIDTH 13 0
BBX 14 14 1 0
BITMAP
00C0
0180
0000
180C
181C
1838
3C78
3458
34D0
65B0
6730
6730
C660
C660
ENDCHAR
STARTCHAR uni1E3F
ENCODING 7743
SWIDTH 889 0
DWIDTH 12 0
BBX 12 11 1 0
BITMAP
0300
0600
0000
36E0
3BB0
3330
6660
6660
6660
CCC0
CCC0
ENDCHAR
STARTCHAR uni1E40
ENCODING 7744
SWIDTH 833 0
DWIDTH 13 0
BBX 14 14 1 0
BITMAP
0180
0180
0000
180C
181C
1838
3C78
3458
34D0
65B0
6730
6730
C660
C660
ENDCHAR
STARTCHAR uni1E41
ENCODING 7745
SWIDTH 889 0
DWIDTH 12 0
BBX 12 11 1 0
BITMAP
0300
0300
0000
36E0
3BB0
3330
6660
6660
6660
CCC0
CCC0
ENDCHAR
STARTCHAR uni1E42
ENCODING 7746
SWIDTH 833 0
DWIDTH 13 0
BBX 14 14 1 -3
BITMAP
180C
181C
1838
3C78
3458
34D0
65B0
6730
6730
C660
C660
0000
0600
0600
ENDCHAR
STARTCHAR uni1E43
ENCODING 7747
SWIDTH 889 0
DWIDTH 12 0
BBX 12 11 1 -3
BITMAP
36E0
3BB0
3330
6660
6660
6660
CCC0
CCC0
0000
0600
0600
ENDCHAR
STARTCHAR uni1E44
ENCODING 7748
SWIDTH 722 0
DWIDTH 11 0
BBX 12 14 1 0
BITMAP
0300
0300
0000
1830
1830
1C30
3C60
3660
3660
66C0
62C0
63C0
C180
C180
ENDCHAR
STARTCHAR uni1E45
ENCODING 7749
SWIDTH 611 0
DWIDTH 9 0
BBX 9 11 1 0
BITMAP
0C00
0C00
0000
3700
3980
3180
6300
6300
6300
C600
C600
ENDCHAR
STARTCHAR uni1E46
ENCODING 7750
SWIDTH 722 0
DWIDTH 11 0
BBX 12 14 1 -3
BITMAP
1830
1830
1C30
3C60
3660
3660
66C0
62C0
63C0
C180
C180
0000
0C00
0C00
ENDCHAR
STARTCHAR uni1E47
ENCODING 7751
SWIDTH 611 0
DWIDTH 9 0
BBX 9 11 1 -3
BITMAP
3700
3980
3180
6300
6300
6300
C600
C600
0000
1800
1800
ENDCHAR
STARTCHAR uni1E48
ENCODING 7752
SWIDTH 722 0
DWIDTH 11 0
BBX 12 13 1 -2
BITMAP
1830
1830
1C30
3C60
3660
3660
66C0
62C0
63C0
C180
C180
0000
1F00
ENDCHAR
STARTCHAR uni1E49
ENCODING 7753
SWIDTH 611 0
DWIDTH 9 0
BBX 9 10 1 -2
BITMAP
3700
3980
3180
6300
6300
6300
C600
C600
0000
3E00
ENDCHAR
STARTCHAR uni1E4A
ENCODING 7754
SWIDTH 722 0
DWIDTH 11 0
BBX 12 14 1 -3
BITMAP
1830
1830
1C30
3C60
3660
3660
66C0
62C0
63C0
C180
C180
0000
0E00
1B00
ENDCHAR
STARTCHAR uni1E4B
ENCODING 7755
SWIDTH 611 0
DWIDTH 9 0
BBX 9 11 1 -3
BITMAP
3700
3980
3180
6300
6300
6300
C600
C600
0000
1C00
3600
ENDCHAR
STARTCHAR uni1E4C
ENCODING 7756
SWIDTH 778 0
DWIDTH 12 0
BBX 11 17 2 0
BITMAP
0180
0300
0000
0340
0580
0000
0780
1CC0
3060
6060
6060
C060
C0C0
C0C0
C180
6700
3C00
ENDCHAR
STARTCHAR uni1E4D
ENCODING 7757
SWIDTH 611 0
DWIDTH 8 0
BBX 8 14 1 0
BITMAP
06
0C
00
0D
16
00
1E
33
63
63
C6
C6
CC
78
ENDCHAR
STARTCHAR uni1E4E
ENCODING 7758
SWIDTH 778 0
DWIDTH 12 0
BBX 11 17 2 0
BITMAP
0D80
0D80
0000
0340
0580
0000
0780
1CC0
3060
6060
6060
C060
C0C0
C0C0
C180
6700
3C00
ENDCHAR
STARTCHAR uni1E4F
ENCODING 7759
SWIDTH 611 0
DWIDTH 8 0
BBX 8 14 1 0
BITMAP
1B
1B
00
0D
16
00
1E
33
63
63
C6
C6
CC
78
ENDCHAR
STARTCHAR uni1E50
ENCODING 7760
SWIDTH 778 0
DWIDTH 12 0
BBX 11 16 2 0
BITMAP
0C00
0600
0000
0F80
0000
0780
1CC0
3060
6060
6060
C060
C0C0
C0C0
C180
6700
3C00
ENDCHAR
STARTCHAR uni1E51
ENCODING 7761
SWIDTH 611 0
DWIDTH 8 0
BBX 8 13 1 0
BITMAP
18
0C
00
3E
00
1E
33
63
63
C6
C6
CC
78
ENDCHAR
STARTCHAR uni1E52
ENCODING 7762
SWIDTH 778 0
DWIDTH 12 0
BBX 11 16 2 0
BITMAP
0300
0600
0000
0F80
0000
0780
1CC0
3060
6060
6060
C060
C0C0
C0C0
C180
6700
3C00
ENDCHAR
STARTCHAR uni1E53
ENCODING 7763
SWIDTH 611 0
DWIDTH 8 0
BBX 8 13 1 0
BITMAP
0C
18
00
3E
00
1E
33
63
63
C6
C6
CC
78
ENDCHAR
STARTCHAR uni1E54
ENCODING 7764
SWIDTH 667 0
DWIDTH 10 0
BBX 10 14 1 0
BITMAP
0300
0600
0000
1F80
18C0
18C0
30C0
3180
3F00
6000
6000
6000
C000
C000
ENDCHAR
STARTCHAR uni1E55
ENCODING 7765
SWIDTH 611 0
DWIDTH 9 0
BBX 10 14 0 -3
BITMAP
0300
0600
0000
1B80
1CC0
38C0
30C0
3180
3180
7B00
6E00
6000
C000
C000
ENDCHAR
STARTCHAR uni1E56
ENCODING 7766
SWIDTH 667 0
DWIDTH 10 0
BBX 10 14 1 0
BITMAP
0600
0600
0000
1F80
18C0
18C0
30C0
3180
3F00
6000
6000
6000
C000
C000
ENDCHAR
STARTCHAR uni1E57
ENCODING 7767
SWIDTH 611 0
DWIDTH 9 0
BBX 10 14 0 -3
BITMAP
0600
0600
0000
1B80
1CC0
38C0
30C0
3180
3180
7B00
6E00
6000
C000
C000
ENDCHAR
STARTCHAR uni1E58
ENCODING 7768
SWIDTH 722 0
DWIDTH 10 0
BBX 10 14 1 0
BITMAP
0600
0600
0000
1F80
18C0
18C0
30C0
3180
3F00
6180
6180
6180
C300
C300
ENDCHAR
STARTCHAR uni1E59
ENCODING 7769
SWIDTH 389 0
DWIDTH 6 0
BBX 7 11 1 0
BITMAP
18
18
00
36
3E
30
60
60
60
C0
C0
ENDCHAR
STARTCHAR uni1E5A
ENCODING 7770
SWIDTH 722 0
DWIDTH 10 0
BBX 10 14 1 -3
BITMAP
1F80
18C0
18C0
30C0
3180
3F00
6180
6180
6180
C300
C300
0000
0C00
0C00
ENDCHAR
STARTCHAR uni1E5B
ENCODING 7771
SWIDTH 389 0
DWIDTH 6 0
BBX 7 11 1 -3
BITMAP
36
3E
30
60
60
60
C0
C0
00
60
60
ENDCHAR
STARTCHAR uni1E5C
ENCODING 7772
SWIDTH 722 0
DWIDTH 10 0
BBX 10 16 1 -3
BITMAP
1F00
0000
1F80
18C0
18C0
30C0
3180
3F00
6180
6180
6180
C300
C300
0000
0C00
0C00
ENDCHAR
STARTCHAR uni1E5D
ENCODING 7773
SWIDTH 389 0
DWIDTH 6 0
BBX 7 13 1 -3
BITMAP
7C
00
36
3E
30
60
60
60
C0
C0
00
60
60
ENDCHAR
STARTCHAR uni1E5E
ENCODING 7774
SWIDTH 722 0
DWIDTH 10 0
BBX 10 13 1 -2
BITMAP
1F80
18C0
18C0
30C0
3180
3F00
6180
6180
6180
C300
C300
0000
3E00
ENDCHAR
STARTCHAR uni1E5F
ENCODING 7775
SWIDTH 389 0
DWIDTH 6 0
BBX 7 10 1 -2
BITMAP
36
3E
30
60
60
60
C0
C0
00
F8
ENDCHAR
STARTCHAR uni1E60
ENCODING 7776
SWIDTH 667 0
DWIDTH 10 0
BBX 10 14 1 0
BITMAP
0600
0600
0000
0F80
18C0
30C0
3800
1E00
0700
0380
0180
C180
C300
7E00
ENDCHAR
STARTCHAR uni1E61
ENCODING 7777
SWIDTH 556 0
DWIDTH 8 0
BBX 8 11 1 0
BITMAP
18
18
00
1E
33
30
1C
06
C6
CC
78
ENDCHAR
STARTCHAR uni1E62
ENCODING 7778
SWIDTH 667 0
DWIDTH 10 0
BBX 10 14 1 -3
BITMAP
0F80
18C0
30C0
3800
1E00
0700
0380
0180
C180
C300
7E00
0000
1800
1800
ENDCHAR
STARTCHAR uni1E63
ENCODING 7779
SWIDTH 556 0
DWIDTH 8 0
BBX 8 11 1 -3
BITMAP
1E
33
30
1C
06
C6
CC
78
00
30
30
ENDCHAR
STARTCHAR uni1E64
ENCODING 7780
SWIDTH 667 0
DWIDTH 10 0
BBX 10 17 1 0
BITMAP
0600
0600
0000
0300
0600
0000
0F80
18C0
30C0
3800
1E00
0700
0380
0180
C180
C300
7E00
ENDCHAR
STARTCHAR uni1E65
ENCODING 7781
SWIDTH 556 0
DWIDTH 8 0
BBX 8 14 1 0
BITMAP
18
18
00
0C
18
00
1E
33
30
1C
06
C6
CC
78
ENDCHAR
STARTCHAR uni1E66
ENCODING 7782
SWIDTH 667 0
DWIDTH 10 0
BBX 10 15 1 0
BITMAP
0600
0600
0000
0D80
0700
0000
0F80
18C0
30C0
3800
1F00
0780
C180
C300
7E00
ENDCHAR
STARTCHAR uni1E67
ENCODING 7783
SWIDTH 556 0
DWIDTH 8 0
BBX 8 14 1 0
BITMAP
0C
0C
00
1B
0E
00
1E
33
30
1C
06
C6
CC
78
ENDCHAR
STARTCHAR uni1E68
ENCODING 7784
SWIDTH 667 0
DWIDTH 10 0
BBX 10 17 1 -3
BITMAP
0600
0600
0000
0F80
18C0
30C0
3800
1E00
0700
0380
0180
C180
C300
7E00
0000
1800
1800
ENDCHAR
STARTCHAR uni1E69
ENCODING 7785
SWIDTH 556 0
DWIDTH 8 0
BBX 8 14 1 -3
BITMAP
18
18
00
1E
33
30
1C
06
C6
CC
78
00
30
30
ENDCHAR
STARTCHAR uni1E6A
ENCODING 7786
SWIDTH 611 0
DWIDTH 8 0
BBX 8 14 3 0
BITMAP
18
18
00
FF
18
18
30
30
30
60
60
60
C0
C0
ENDCHAR
STARTCHAR uni1E6B
ENCODING 7787
SWIDTH 333 0
DWIDTH 5 0
BBX 6 13 1 0
BITMAP
30
30
00
18
18
7C
30
30
60
60
C0
C0
60
ENDCHAR
STARTCHAR uni1E6C
ENCODING 7788
SWIDTH 611 0
DWIDTH 8 0
BBX 8 14 3 -3
BITMAP
FF
18
18
30
30
30
60
60
60
C0
C0
00
60
60
ENDCHAR
STARTCHAR uni1E6D
ENCODING 7789
SWIDTH 333 0
DWIDTH 5 0
BBX 6 13 1 -3
BITMAP
18
18
7C
30
30
60
60
C0
C0
60
00
60
60
ENDCHAR
STARTCHAR uni1E6E
ENCODING 7790
SWIDTH 611 0
DWIDTH 8 0
BBX 8 13 3 -2
BITMAP
FF
18
18
30
30
30
60
60
60
C0
C0
00
F8
ENDCHAR
STARTCHAR uni1E6F
ENCODING 7791
SWIDTH 333 0
DWIDTH 5 0
BBX 7 12 0 -2
BITMAP
0C
0C
3E
18
18
30
30
60
60
30
00
F8
ENDCHAR
STARTCHAR uni1E70
ENCODING 7792
SWIDTH 611 0
DWIDTH 8 0
BBX 8 14 3 -3
BITMAP
FF
18
18
30
30
30
60
60
60
C0
C0
00
70
D8
ENDCHAR
STARTCHAR uni1E71
ENCODING 7793
SWIDTH 333 0
DWIDTH 5 0
BBX 7 13 0 -3
BITMAP
0C
0C
3E
18
18
30
30
60
60
30
00
70
D8
ENDCHAR
STARTCHAR uni1E72
ENCODING 7794
SWIDTH 722 0
DWIDTH 11 0
BBX 11 14 2 -3
BITMAP
3060
3060
3060
60C0
60C0
60C0
C180
C180
C180
C300
7E00
0000
3600
3600
ENDCHAR
STARTCHAR uni1E73
ENCODING 7795
SWIDTH 611 0
DWIDTH 9 0
BBX 9 11 1 -3
BITMAP
3180
3180
6180
6300
6300
C600
CE00
7600
0000
6C00
6C00
ENDCHAR
STARTCHAR uni1E74
ENCODING 7796
SWIDTH 722 0
DWIDTH 11 0
BBX 11 14 2 -3
BITMAP
3060
3060
3060
60C0
60C0
60C0
C180
C180
C180
C300
7E00
0000
1A00
2C00
ENDCHAR
STARTCHAR uni1E75
ENCODING 7797
SWIDTH 611 0
DWIDTH 9 0
BBX 9 11 1 -3
BITMAP
3180
3180
6180
6300
6300
C600
CE00
7600
0000
3400
5800
ENDCHAR
STARTCHAR uni1E76
ENCODING 7798
SWIDTH 722 0
DWIDTH 11 0
BBX 11 14 2 -3
BITMAP
3060
3060
3060
60C0
60C0
60C0
C180
C180
C180
C300
7E00
0000
1C00
3600
ENDCHAR
STARTCHAR uni1E77
ENCODING 7799
SWIDTH 611 0
DWIDTH 9 0
BBX 9 11 1 -3
BITMAP
3180
3180
6180
6300
6300
C600
CE00
7600
0000
3800
6C00
ENDCHAR
STARTCHAR uni1E78
ENCODING 7800
SWIDTH 722 0
DWIDTH 11 0
BBX 11 17 2 0
BITMAP
0300
0600
0000
0680
0B00
0000
3060
3060
3060
60C0
60C0
60C0
C180
C180
C180
C300
7E00
ENDCHAR
STARTCHAR uni1E79
ENCODING 7801
SWIDTH 611 0
DWIDTH 9 0
BBX 9 14 1 0
BITMAP
0600
0C00
0000
0D00
1600
0000
3180
3180
6180
6300
6300
C600
CE00
7600
ENDCHAR
STARTCHAR uni1E7A
ENCODING 7802
SWIDTH 722 0
DWIDTH 11 0
BBX 11 16 2 0
BITMAP
0D80
0D80
0000
0F80
0000
3060
3060
3060
60C0
60C0
60C0
C180
C180
C180
C300
7E00
ENDCHAR
STARTCHAR uni1E7B
ENCODING 7803
SWIDTH 611 0
DWIDTH 9 0
BBX 9 13 1 0
BITMAP
1B00
1B00
0000
1F00
0000
3180
3180
6180
6300
6300
C600
CE00
7600
ENDCHAR
STARTCHAR uni1E7C
ENCODING 7804
SWIDTH 667 0
DWIDTH 10 0
BBX 9 14 3 0
BITMAP
1A00
2C00
0000
C180
C180
C300
C300
C600
C600
CC00
CC00
D800
7000
6000
ENDCHAR
STARTCHAR uni1E7D
ENCODING 7805
SWIDTH 556 0
DWIDTH 8 0
BBX 8 11 2 0
BITMAP
1A
2C
00
C3
C3
C6
CC
CC
58
70
60
ENDCHAR
STARTCHAR uni1E7E
ENCODING 7806
SWIDTH 667 0
DWIDTH 10 0
BBX 9 14 3 -3
BITMAP
C180
C180
C300
C300
C600
C600
CC00
CC00
D800
7000
6000
0000
3000
3000
ENDCHAR
STARTCHAR uni1E7F
ENCODING 7807
SWIDTH 556 0
DWIDTH 8 0
BBX 8 11 2 -3
BITMAP
C3
C3
C6
CC
CC
58
70
60
00
30
30
ENDCHAR
STARTCHAR Wgrave
ENCODING 7808
SWIDTH 944 0
DWIDTH 14 0
BBX 13 14 3 0
BITMAP
0C00
0600
0000
C618
C618
C630
CE30
CE60
CA60
DAC0
D2C0
F380
6300
6300
ENDCHAR
STARTCHAR wgrave
ENCODING 7809
SWIDTH 778 0
DWIDTH 11 0
BBX 10 11 2 0
BITMAP
1800
0C00
0000
CCC0
CCC0
CCC0
DD80
D580
F700
6600
6600
ENDCHAR
STARTCHAR Wacute
ENCODING 7810
SWIDTH 944 0
DWIDTH 14 0
BBX 13 14 3 0
BITMAP
0300
0600
0000
C618
C618
C630
CE30
CE60
CA60
DAC0
D2C0
F380
6300
6300
ENDCHAR
STARTCHAR wacute
ENCODING 7811
SWIDTH 778 0
DWIDTH 11 0
BBX 10 11 2 0
BITMAP
0600
0C00
0000
CCC0
CCC0
CCC0
DD80
D580
F700
6600
6600
ENDCHAR
STARTCHAR Wdieresis
ENCODING 7812
SWIDTH 944 0
DWIDTH 14 0
BBX 13 14 3 0
BITMAP
0D80
0D80
0000
C618
C618
C630
CE30
CE60
CA60
DAC0
D2C0
F380
6300
6300
ENDCHAR
STARTCHAR wdieresis
ENCODING 7813
SWIDTH 778 0
DWIDTH 11 0
BBX 10 11 2 0
BITMAP
1B00
1B00
0000
CCC0
CCC0
CCC0
DD80
D580
F700
6600
6600
ENDCHAR
STARTCHAR uni1E86
ENCODING 7814
SWIDTH 944 0
DWIDTH 14 0
BBX 13 14 3 0
BITMAP
0600
0600
0000
C618
C618
C630
CE30
CE60
CA60
DAC0
D2C0
F380
6300
6300
ENDCHAR
STARTCHAR uni1E87
ENCODING 7815
SWIDTH 778 0
DWIDTH 11 0
BBX 10 11 2 0
BITMAP
0C00
0C00
0000
CCC0
CCC0
CCC0
DD80
D580
F700
6600
6600
ENDCHAR
STARTCHAR uni1E88
ENCODING 7816
SWIDTH 944 0
DWIDTH 14 0
BBX 13 14 3 -3
BITMAP
C618
C618
C630
CE30
CE60
CA60
DAC0
D2C0
F380
6300
6300
0000
0C00
0C00
ENDCHAR
STARTCHAR uni1E89
ENCODING 7817
SWIDTH 778 0
DWIDTH 11 0
BBX 10 11 2 -3
BITMAP
CCC0
CCC0
CCC0
DD80
D580
F700
6600
6600
0000
1800
1800
ENDCHAR
STARTCHAR uni1E8A
ENCODING 7818
SWIDTH 667 0
DWIDTH 9 0
BBX 12 14 0 0
BITMAP
0300
0300
0000
1830
1860
0CC0
0D80
0700
0600
0E00
1B00
3300
6180
C180
ENDCHAR
STARTCHAR uni1E8B
ENCODING 7819
SWIDTH 556 0
DWIDTH 7 0
BBX 9 11 0 0
BITMAP
0C00
0C00
0000
3180
3300
1600
1C00
1C00
3400
6600
C600
ENDCHAR
STARTCHAR uni1E8C
ENCODING 7820
SWIDTH 667 0
DWIDTH 9 0
BBX 12 14 0 0
BITMAP
0D80
0D80
0000
1830
1860
0CC0
0D80
0700
0600
0E00
1B00
3300
6180
C180
ENDCHAR
STARTCHAR uni1E8D
ENCODING 7821
SWIDTH 556 0
DWIDTH 7 0
BBX 9 11 0 0
BITMAP
3600
3600
0000
3180
3300
1600
1C00
1C00
3400
6600
C600
ENDCHAR
STARTCHAR uni1E8E
ENCODING 7822
SWIDTH 667 0
DWIDTH 10 0
BBX 10 14 3 0
BITMAP
0C00
0C00
0000
C0C0
C180
C300
6600
6C00
7800
3000
3000
6000
6000
6000
ENDCHAR
STARTCHAR uni1E8F
ENCODING 7823
SWIDTH 556 0
DWIDTH 7 0
BBX 9 14 0 -3
BITMAP
0C00
0C00
0000
3180
3180
3300
3300
3600
3600
1C00
1800
3000
6000
C000
ENDCHAR
STARTCHAR uni1E90
ENCODING 7824
SWIDTH 611 0
DWIDTH 9 0
BBX 11 14 0 0
BITMAP
0700
0D80
0000
1FE0
00C0
0180
0300
0600
0C00
1800
3000
6000
C000
FF00
ENDCHAR
STARTCHAR uni1E91
ENCODING 7825
SWIDTH 500 0
DWIDTH 6 0
BBX 8 11 0 0
BITMAP
1C
36
00
3F
06
0C
18
30
60
C0
FC
ENDCHAR
STARTCHAR uni1E92
ENCODING 7826
SWIDTH 611 0
DWIDTH 9 0
BBX 11 14 0 -3
BITMAP
1FE0
00C0
0180
0300
0600
0C00
1800
3000
6000
C000
FF00
0000
1800
1800
ENDCHAR
STARTCHAR uni1E93
ENCODING 7827
SWIDTH 500 0
DWIDTH 6 0
BBX 8 11 0 -3
BITMAP
3F
06
0C
18
30
60
C0
FC
00
30
30
ENDCHAR
STARTCHAR uni1E94
ENCODING 7828
SWIDTH 611 0
DWIDTH 9 0
BBX 11 13 0 -2
BITMAP
1FE0
00C0
0180
0300
0600
0C00
1800
3000
6000
C000
FF00
0000
7C00
ENDCHAR
STARTCHAR uni1E95
ENCODING 7829
SWIDTH 500 0
DWIDTH 6 0
BBX 8 10 0 -2
BITMAP
3F
06
0C
18
30
60
C0
FC
00
F8
ENDCHAR
STARTCHAR uni1E96
ENCODING 7830
SWIDTH 611 0
DWIDTH 9 0
BBX 9 13 1 -2
BITMAP
1800
1800
3000
3700
3B80
3180
6300
6300
6300
C600
C600
0000
3E00
ENDCHAR
STARTCHAR uni1E97
ENCODING 7831
SWIDTH 333 0
DWIDTH 5 0
BBX 6 13 1 0
BITMAP
6C
6C
00
18
18
7C
30
30
60
60
C0
C0
60
ENDCHAR
STARTCHAR uni1E98
ENCODING 7832
SWIDTH 778 0
DWIDTH 11 0
BBX 10 12 2 0
BITMAP
0E00
1B00
0E00
0000
CCC0
CCC0
CCC0
DD80
D580
F700
6600
6600
ENDCHAR
STARTCHAR uni1E99
ENCODING 7833
SWIDTH 556 0
DWIDTH 7 0
BBX 9 15 0 -3
BITMAP
0E00
1B00
0E00
0000
3180
3180
3300
3300
3600
3600
1C00
1800
3000
6000
C000
ENDCHAR
STARTCHAR uni1EA0
ENCODING 7840
SWIDTH 722 0
DWIDTH 9 0
BBX 9 14 0 -3
BITMAP
0300
0700
0D80
0D80
1980
1980
3180
7F80
6180
C180
C180
0000
0C00
0C00
ENDCHAR
STARTCHAR uni1EA1
ENCODING 7841
SWIDTH 556 0
DWIDTH 8 0
BBX 8 11 1 -3
BITMAP
1E
33
03
3E
66
C6
CC
76
00
18
18
ENDCHAR
STARTCHAR uni1EA4
ENCODING 7844
SWIDTH 722 0
DWIDTH 9 0
BBX 10 17 0 0
BITMAP
0300
0600
0000
0380
06C0
0000
0300
0700
0D80
0D80
1980
1980
3180
7F80
6180
C180
C180
ENDCHAR
STARTCHAR uni1EA5
ENCODING 7845
SWIDTH 556 0
DWIDTH 8 0
BBX 8 14 1 0
BITMAP
06
0C
00
0E
1B
00
1E
33
03
3E
66
C6
CC
76
ENDCHAR
STARTCHAR uni1EA6
ENCODING 7846
SWIDTH 722 0
DWIDTH 9 0
BBX 10 17 0 0
BITMAP
0600
0300
0000
0380
06C0
0000
0300
0700
0D80
0D80
1980
1980
3180
7F80
6180
C180
C180
ENDCHAR
STARTCHAR uni1EA7
ENCODING 7847
SWIDTH 556 0
DWIDTH 8 0
BBX 8 14 1 0
BITMAP
18
0C
00
0E
1B
00
1E
33
03
3E
66
C6
CC
76
ENDCHAR
STARTCHAR uni1EAA
ENCODING 7850
SWIDTH 722 0
DWIDTH 9 0
BBX 10 17 0 0
BITMAP
0680
0B00
0000
0380
06C0
0000
0300
0700
0D80
0D80
1980
1980
3180
7F80
6180
C180
C180
ENDCHAR
STARTCHAR uni1EAB
ENCODING 7851
SWIDTH 556 0
DWIDTH 8 0
BBX 8 14 1 0
BITMAP
0D
16
00
0E
1B
00
1E
33
03
3E
66
C6
CC
76
ENDCHAR
STARTCHAR uni1EAC
ENCODING 7852
SWIDTH 722 0
DWIDTH 9 0
BBX 9 17 0 -3
BITMAP
0E00
1B00
0000
0300
0700
0D80
0D80
1980
1980
3180
7F80
6180
C180
C180
0000
0C00
0C00
ENDCHAR
STARTCHAR uni1EAD
ENCODING 7853
SWIDTH 556 0
DWIDTH 8 0
BBX 8 14 1 -3
BITMAP
1C
36
00
1E
33
03
3E
66
C6
CC
76
00
18
18
ENDCHAR
STARTCHAR uni1EAE
ENCODING 7854
SWIDTH 722 0
DWIDTH 9 0
BBX 9 17 0 0
BITMAP
0300
0600
0000
0900
0F00
0000
0300
0700
0D80
0D80
1980
1980
3180
7F80
6180
C180
C180
ENDCHAR
STARTCHAR uni1EAF
ENCODING 7855
SWIDTH 556 0
DWIDTH 8 0
BBX 8 14 1 0
BITMAP
06
0C
00
12
1E
00
1E
33
03
3E
66
C6
CC
76
ENDCHAR
STARTCHAR uni1EB0
ENCODING 7856
SWIDTH 722 0
DWIDTH 9 0
BBX 9 17 0 0
BITMAP
0C00
0600
0000
0900
0F00
0000
0300
0700
0D80
0D80
1980
1980
3180
7F80
6180
C180
C180
ENDCHAR
STARTCHAR uni1EB1
ENCODING 7857
SWIDTH 556 0
DWIDTH 8 0
BBX 8 14 1 0
BITMAP
18
0C
00
12
1E
00
1E
33
03
3E
66
C6
CC
76
ENDCHAR
STARTCHAR uni1EB4
ENCODING 7860
SWIDTH 722 0
DWIDTH 9 0
BBX 9 17 0 0
BITMAP
0D00
1600
0000
0900
0F00
0000
0300
0700
0D80
0D80
1980
1980
3180
7F80
6180
C180
C180
ENDCHAR
STARTCHAR uni1EB5
ENCODING 7861
SWIDTH 556 0
DWIDTH 8 0
BBX 8 14 1 0
BITMAP
1A
2C
00
12
1E
00
1E
33
03
3E
66
C6
CC
76
ENDCHAR
STARTCHAR uni1EB6
ENCODING 7862
SWIDTH 722 0
DWIDTH 9 0
BBX 9 17 0 -3
BITMAP
0900
0F00
0000
0300
0700
0D80
0D80
1980
1980
3180
7F80
6180
C180
C180
0000
0C00
0C00
ENDCHAR
STARTCHAR uni1EB7
ENCODING 7863
SWIDTH 556 0
DWIDTH 8 0
BBX 8 14 1 -3
BITMAP
12
1E
00
1E
33
03
3E
66
C6
CC
76
00
18
18
ENDCHAR
STARTCHAR uni1EB8
ENCODING 7864
SWIDTH 667 0
DWIDTH 9 0
BBX 10 14 1 -3
BITMAP
1FC0
1800
1800
3000
3000
3F80
6000
6000
6000
C000
FE00
0000
1800
1800
ENDCHAR
STARTCHAR uni1EB9
ENCODING 7865
SWIDTH 556 0
DWIDTH 8 0
BBX 8 11 1 -3
BITMAP
1E
33
63
7E
C0
C0
CC
78
00
30
30
ENDCHAR
STARTCHAR uni1EBC
ENCODING 7868
SWIDTH 667 0
DWIDTH 9 0
BBX 10 14 1 0
BITMAP
0D00
1600
0000
1FC0
1800
1800
3000
3000
3F80
6000
6000
6000
C000
FE00
ENDCHAR
STARTCHAR uni1EBD
ENCODING 7869
SWIDTH 556 0
DWIDTH 8 0
BBX 8 11 1 0
BITMAP
1A
2C
00
1E
33
63
7E
C0
C0
CC
78
ENDCHAR
STARTCHAR uni1EBE
ENCODING 7870
SWIDTH 667 0
DWIDTH 9 0
BBX 10 17 1 0
BITMAP
0300
0600
0000
0700
0D80
0000
1FC0
1800
1800
3000
3000
3F80
6000
6000
6000
C000
FE00
ENDCHAR
STARTCHAR uni1EBF
ENCODING 7871
SWIDTH 556 0
DWIDTH 8 0
BBX 8 14 1 0
BITMAP
06
0C
00
0E
1B
00
1E
33
63
7E
C0
C0
CC
78
ENDCHAR
STARTCHAR uni1EC0
ENCODING 7872
SWIDTH 667 0
DWIDTH 9 0
BBX 10 17 1 0
BITMAP
0C00
0600
0000
0700
0D80
0000
1FC0
1800
1800
3000
3000
3F80
6000
6000
6000
C000
FE00
ENDCHAR
STARTCHAR uni1EC1
ENCODING 7873
SWIDTH 556 0
DWIDTH 8 0
BBX 8 14 1 0
BITMAP
18
0C
00
0E
1B
00
1E
33
63
7E
C0
C0
CC
78
ENDCHAR
STARTCHAR uni1EC4
ENCODING 7876
SWIDTH 667 0
DWIDTH 9 0
BBX 10 17 1 0
BITMAP
0680
0B00
0000
0700
0D80
0000
1FC0
1800
1800
3000
3000
3F80
6000
6000
6000
C000
FE00
ENDCHAR
STARTCHAR uni1EC5
ENCODING 7877
SWIDTH 556 0
DWIDTH 8 0
BBX 8 14 1 0
BITMAP
0D
16
00
0E
1B
00
1E
33
63
7E
C0
C0
CC
78
ENDCHAR
STARTCHAR uni1EC6
ENCODING 7878
SWIDTH 667 0
DWIDTH 9 0
BBX 10 17 1 -3
BITMAP
0E00
1B00
0000
1FC0
1800
1800
3000
3000
3F80
6000
6000
6000
C000
FE00
0000
1800
1800
ENDCHAR
STARTCHAR uni1EC7
ENCODING 7879
SWIDTH 556 0
DWIDTH 8 0
BBX 8 14 1 -3
BITMAP
1C
36
00
1E
33
63
7E
C0
C0
CC
78
00
30
30
ENDCHAR
STARTCHAR uni1ECA
ENCODING 7882
SWIDTH 278 0
DWIDTH 4 0
BBX 5 14 1 -3
BITMAP
18
18
18
30
30
30
60
60
60
C0
C0
00
60
60
ENDCHAR
STARTCHAR uni1ECB
ENCODING 7883
SWIDTH 278 0
DWIDTH 4 0
BBX 5 14 1 -3
BITMAP
18
18
00
30
30
30
60
60
60
C0
C0
00
60
60
ENDCHAR
STARTCHAR uni1ECC
ENCODING 7884
SWIDTH 778 0
DWIDTH 12 0
BBX 11 14 2 -3
BITMAP
0780
1CC0
3060
6060
6060
C060
C0C0
C0C0
C180
6700
3C00
0000
0C00
0C00
ENDCHAR
STARTCHAR uni1ECD
ENCODING 7885
SWIDTH 611 0
DWIDTH 8 0
BBX 8 11 1 -3
BITMAP
1E
33
63
63
C6
C6
CC
78
00
30
30
ENDCHAR
STARTCHAR uni1ED0
ENCODING 7888
SWIDTH 778 0
DWIDTH 12 0
BBX 11 17 2 0
BITMAP
0180
0300
0000
0380
06C0
0000
0780
1CC0
3060
6060
6060
C060
C0C0
C0C0
C180
6700
3C00
ENDCHAR
STARTCHAR uni1ED1
ENCODING 7889
SWIDTH 611 0
DWIDTH 8 0
BBX 8 14 1 0
BITMAP
06
0C
00
0E
1B
00
1E
33
63
63
C6
C6
CC
78
ENDCHAR
STARTCHAR uni1ED2
ENCODING 7890
SWIDTH 778 0
DWIDTH 12 0
BBX 11 17 2 0
BITMAP
0600
0300
0000
0380
06C0
0000
0780
1CC0
3060
6060
6060
C060
C0C0
C0C0
C180
6700
3C00
ENDCHAR
STARTCHAR uni1ED3
ENCODING 7891
SWIDTH 611 0
DWIDTH 8 0
BBX 8 14 1 0
BITMAP
18
0C
00
0E
1B
00
1E
33
63
63
C6
C6
CC
78
ENDCHAR
STARTCHAR uni1ED6
ENCODING 7894
SWIDTH 778 0
DWIDTH 12 0
BBX 11 17 2 0
BITMAP
0680
0B00
0000
0380
06C0
0000
0780
1CC0
3060
6060
6060
C060
C0C0
C0C0
C180
6700
3C00
ENDCHAR
STARTCHAR uni1ED7
ENCODING 7895
SWIDTH 611 0
DWIDTH 8 0
BBX 8 14 1 0
BITMAP
0D
16
00
0E
1B
00
1E
33
63
63
C6
C6
CC
78
ENDCHAR
STARTCHAR uni1ED8
ENCODING 7896
SWIDTH 778 0
DWIDTH 12 0
BBX 11 17 2 -3
BITMAP
0700
0D80
0000
0780
1CC0
3060
6060
6060
C060
C0C0
C0C0
C180
6700
3C00
0000
0C00
0C00
ENDCHAR
STARTCHAR uni1ED9
ENCODING 7897
SWIDTH 611 0
DWIDTH 8 0
BBX 8 14 1 -3
BITMAP
1C
36
00
1E
33
63
63
C6
C6
CC
78
00
30
30
ENDCHAR
STARTCHAR uni1EDA
ENCODING 7898
SWIDTH 778 0
DWIDTH 12 0
BBX 13 14 2 0
BITMAP
0180
0300
0000
07B8
1CD8
3070
6060
6060
C060
C0C0
C0C0
C180
6700
3C00
ENDCHAR
STARTCHAR uni1EDB
ENCODING 7899
SWIDTH 611 0
DWIDTH 8 0
BBX 11 11 1 0
BITMAP
0300
0600
0000
1EE0
3360
63C0
6300
C600
C600
CC00
7800
ENDCHAR
STARTCHAR uni1EDC
ENCODING 7900
SWIDTH 778 0
DWIDTH 12 0
BBX 13 14 2 0
BITMAP
0300
0180
0000
07B8
1CD8
3070
6060
6060
C060
C0C0
C0C0
C180
6700
3C00
ENDCHAR
STARTCHAR uni1EDD
ENCODING 7901
SWIDTH 611 0
DWIDTH 8 0
BBX 11 11 1 0
BITMAP
0C00
0600
0000
1EE0
3360
63C0
6300
C600
C600
CC00
7800
ENDCHAR
STARTCHAR uni1EE0
ENCODING 7904
SWIDTH 778 0
DWIDTH 12 0
BBX 13 14 2 0
BITMAP
0340
0580
0000
07B8
1CD8
3070
6060
6060
C060
C0C0
C0C0
C180
6700
3C00
ENDCHAR
STARTCHAR uni1EE1
ENCODING 7905
SWIDTH 611 0
DWIDTH 8 0
BBX 11 11 1 0
BITMAP
0680
0B00
0000
1EE0
3360
63C0
6300
C600
C600
CC00
7800
ENDCHAR
STARTCHAR uni1EE2
ENCODING 7906
SWIDTH 778 0
DWIDTH 12 0
BBX 13 14 2 -3
BITMAP
07B8
1CD8
3070
6060
6060
C060
C0C0
C0C0
C180
6700
3C00
0000
0C00
0C00
ENDCHAR
STARTCHAR uni1EE3
ENCODING 7907
SWIDTH 611 0
DWIDTH 8 0
BBX 11 11 1 -3
BITMAP
1EE0
3360
63C0
6300
C600
C600
CC00
7800
0000
1800
1800
ENDCHAR
STARTCHAR uni1EE4
ENCODING 7908
SWIDTH 722 0
DWIDTH 11 0
BBX 11 14 2 -3
BITMAP
3060
3060
3060
60C0
60C0
60C0
C180
C180
C180
C300
7E00
0000
0C00
0C00
ENDCHAR
STARTCHAR uni1EE5
ENCODING 7909
SWIDTH 611 0
DWIDTH 9 0
BBX 9 11 1 -3
BITMAP
3180
3180
6180
6300
6300
C600
CE00
7600
0000
1800
1800
ENDCHAR
STARTCHAR uni1EE8
ENCODING 7912
SWIDTH 722 0
DWIDTH 11 0
BBX 13 14 2 0
BITMAP
0180
0300
0000
3078
3078
3070
60C0
60C0
60C0
C180
C180
C180
C300
7E00
ENDCHAR
STARTCHAR uni1EE9
ENCODING 7913
SWIDTH 611 0
DWIDTH 9 0
BBX 11 11 1 0
BITMAP
0300
0600
0000
31E0
31E0
61C0
6300
6300
C600
CE00
7600
ENDCHAR
STARTCHAR uni1EEA
ENCODING 7914
SWIDTH 722 0
DWIDTH 11 0
BBX 13 14 2 0
BITMAP
0300
0180
0000
3078
3078
3070
60C0
60C0
60C0
C180
C180
C180
C300
7E00
ENDCHAR
STARTCHAR uni1EEB
ENCODING 7915
SWIDTH 611 0
DWIDTH 9 0
BBX 11 11 1 0
BITMAP
0C00
0600
0000
31E0
31E0
61C0
6300
6300
C600
CE00
7600
ENDCHAR
STARTCHAR uni1EEE
ENCODING 7918
SWIDTH 722 0
DWIDTH 11 0
BBX 13 14 2 0
BITMAP
0340
0580
0000
3078
3078
3070
60C0
60C0
60C0
C180
C180
C180
C300
7E00
ENDCHAR
STARTCHAR uni1EEF
ENCODING 7919
SWIDTH 611 0
DWIDTH 9 0
BBX 11 11 1 0
BITMAP
0680
0B00
0000
31E0
31E0
61C0
6300
6300
C600
CE00
7600
ENDCHAR
STARTCHAR uni1EF0
ENCODING 7920
SWIDTH 722 0
DWIDTH 11 0
BBX 13 14 2 -3
BITMAP
3078
3078
3070
60C0
60C0
60C0
C180
C180
C180
C300
7E00
0000
0C00
0C00
ENDCHAR
STARTCHAR uni1EF1
ENCODING 7921
SWIDTH 611 0
DWIDTH 9 0
BBX 11 11 1 -3
BITMAP
31E0
31E0
61C0
6300
6300
C600
CE00
7600
0000
1800
1800
ENDCHAR
STARTCHAR Ygrave
ENCODING 7922
SWIDTH 667 0
DWIDTH 10 0
BBX 10 14 3 0
BITMAP
1800
0C00
0000
C0C0
C180
C300
6600
6C00
7800
3000
3000
6000
6000
6000
ENDCHAR
STARTCHAR ygrave
ENCODING 7923
SWIDTH 556 0
DWIDTH 7 0
BBX 9 14 0 -3
BITMAP
1800
0C00
0000
3180
3180
3300
3300
3600
3600
1C00
1800
3000
6000
C000
ENDCHAR
STARTCHAR uni1EF4
ENCODING 7924
SWIDTH 667 0
DWIDTH 10 0
BBX 10 14 3 -3
BITMAP
C0C0
C180
C300
6600
6C00
7800
3000
3000
6000
6000
6000
0000
3000
3000
ENDCHAR
STARTCHAR uni1EF5
ENCODING 7925
SWIDTH 556 0
DWIDTH 7 0
BBX 9 14 0 -6
BITMAP
3180
3180
3300
3300
3600
3600
1C00
1800
3000
6000
C000
0000
3000
3000
ENDCHAR
STARTCHAR uni1EF8
ENCODING 7928
SWIDTH 667 0
DWIDTH 10 0
BBX 10 14 3 0
BITMAP
1A00
2C00
0000
C0C0
C180
C300
6600
6C00
7800
3000
3000
6000
6000
6000
ENDCHAR
STARTCHAR uni1EF9
ENCODING 7929
SWIDTH 556 0
DWIDTH 7 0
BBX 9 14 0 -3
BITMAP
0D00
1600
0000
3180
3180
3300
3300
3600
3600
1C00
1800
3000
6000
C000
ENDCHAR
STARTCHAR uni2000
ENCODING 8192
SWIDTH 500 0
DWIDTH 7 0
BBX 1 1 0 0
BITMAP
00
ENDCHAR
STARTCHAR uni2001
ENCODING 8193
SWIDTH 1000 0
DWIDTH 14 0
BBX 1 1 0 0
BITMAP
00
ENDCHAR
STARTCHAR uni2002
ENCODING 8194
SWIDTH 500 0
DWIDTH 7 0
BBX 1 1 0 0
BITMAP
00
ENDCHAR
STARTCHAR uni2003
ENCODING 8195
SWIDTH 1000 0
DWIDTH 14 0
BBX 1 1 0 0
BITMAP
00
ENDCHAR
STARTCHAR uni2004
ENCODING 8196
SWIDTH 333 0
DWIDTH 5 0
BBX 1 1 0 0
BITMAP
00
ENDCHAR
STARTCHAR uni2005
ENCODING 8197
SWIDTH 250 0
DWIDTH 3 0
BBX 1 1 0 0
BITMAP
00
ENDCHAR
STARTCHAR uni2006
ENCODING 8198
SWIDTH 167 0
DWIDTH 2 0
BBX 1 1 0 0
BITMAP
00
ENDCHAR
STARTCHAR uni2007
ENCODING 8199
SWIDTH 556 0
DWIDTH 8 0
BBX 1 1 0 0
BITMAP
00
ENDCHAR
STARTCHAR uni2008
ENCODING 8200
SWIDTH 278 0
DWIDTH 4 0
BBX 1 1 0 0
BITMAP
00
ENDCHAR
STARTCHAR uni2009
ENCODING 8201
SWIDTH 200 0
DWIDTH 3 0
BBX 1 1 0 0
BITMAP
00
ENDCHAR
STARTCHAR uni200A
ENCODING 8202
SWIDTH 100 0
DWIDTH 1 0
BBX 1 1 0 0
BITMAP
00
ENDCHAR
STARTCHAR uni200B
ENCODING 8203
SWIDTH 0 0
DWIDTH 0 0
BBX 1 1 0 0
BITMAP
00
ENDCHAR
STARTCHAR uni2010
ENCODING 8208
SWIDTH 333 0
DWIDTH 5 0
BBX 4 2 1 3
BITMAP
F0
F0
ENDCHAR
STARTCHAR uni2011
ENCODING 8209
SWIDTH 333 0
DWIDTH 5 0
BBX 4 2 1 3
BITMAP
F0
F0
ENDCHAR
STARTCHAR figuredash
ENCODING 8210
SWIDTH 556 0
DWIDTH 8 0
BBX 8 1 1 4
BITMAP
FF
ENDCHAR
STARTCHAR endash
ENCODING 8211
SWIDTH 556 0
DWIDTH 8 0
BBX 8 1 1 4
BITMAP
FF
ENDCHAR
STARTCHAR emdash
ENCODING 8212
SWIDTH 1000 0
DWIDTH 14 0
BBX 14 1 1 4
BITMAP
FFFC
ENDCHAR
STARTCHAR afii00208
ENCODING 8213
SWIDTH 1000 0
DWIDTH 14 0
BBX 14 1 1 4
BITMAP
FFFC
ENDCHAR
STARTCHAR quoteleft
ENCODING 8216
SWIDTH 278 0
DWIDTH 5 0
BBX 3 3 4 8
BITMAP
60
C0
E0
ENDCHAR
STARTCHAR quoteright
ENCODING 8217
SWIDTH 278 0
DWIDTH 5 0
BBX 3 3 4 8
BITMAP
E0
60
C0
ENDCHAR
STARTCHAR quotesinglbase
ENCODING 8218
SWIDTH 278 0
DWIDTH 4 0
BBX 3 3 1 -2
BITMAP
E0
60
C0
ENDCHAR
STARTCHAR quotereversed
ENCODING 8219
SWIDTH 278 0
DWIDTH 5 0
BBX 3 3 4 8
BITMAP
E0
C0
60
ENDCHAR
STARTCHAR quotedblleft
ENCODING 8220
SWIDTH 500 0
DWIDTH 7 0
BBX 6 3 3 8
BITMAP
6C
D8
FC
ENDCHAR
STARTCHAR quotedblright
ENCODING 8221
SWIDTH 500 0
DWIDTH 7 0
BBX 6 3 4 8
BITMAP
FC
6C
D8
ENDCHAR
STARTCHAR quotedblbase
ENCODING 8222
SWIDTH 500 0
DWIDTH 7 0
BBX 6 3 0 -2
BITMAP
FC
6C
D8
ENDCHAR
STARTCHAR uni201F
ENCODING 8223
SWIDTH 500 0
DWIDTH 7 0
BBX 6 3 4 8
BITMAP
FC
D8
6C
ENDCHAR
STARTCHAR dagger
ENCODING 8224
SWIDTH 556 0
DWIDTH 8 0
BBX 8 14 2 -3
BITMAP
0C
0C
18
18
FF
18
30
30
30
60
60
60
C0
C0
ENDCHAR
STARTCHAR daggerdbl
ENCODING 8225
SWIDTH 556 0
DWIDTH 8 0
BBX 10 14 0 -3
BITMAP
0300
0300
0600
0600
3FC0
0600
0C00
0C00
0C00
FF00
1800
1800
3000
3000
ENDCHAR
STARTCHAR bullet
ENCODING 8226
SWIDTH 350 0
DWIDTH 6 0
BBX 4 4 2 2
BITMAP
70
F0
F0
E0
ENDCHAR
STARTCHAR ellipsis
ENCODING 8230
SWIDTH 1000 0
DWIDTH 15 0
BBX 12 2 2 0
BITMAP
C630
C630
ENDCHAR
STARTCHAR perthousand
ENCODING 8240
SWIDTH 1000 0
DWIDTH 16 0
BBX 14 10 1 0
BITMAP
1860
34C0
2D80
1B00
0600
0C00
1B18
36B4
65AC
C318
ENDCHAR
STARTCHAR guilsinglleft
ENCODING 8249
SWIDTH 333 0
DWIDTH 7 0
BBX 5 5 2 2
BITMAP
18
70
C0
60
30
ENDCHAR
STARTCHAR guilsinglright
ENCODING 8250
SWIDTH 333 0
DWIDTH 7 0
BBX 5 5 2 2
BITMAP
60
30
18
70
C0
ENDCHAR
STARTCHAR fraction
ENCODING 8260
SWIDTH 167 0
DWIDTH 7 0
BBX 9 10 0 0
BITMAP
0180
0300
0600
0400
0C00
1800
1000
3000
6000
C000
ENDCHAR
STARTCHAR oneinferior
ENCODING 8321
SWIDTH 333 0
DWIDTH 5 0
BBX 3 6 3 -3
BITMAP
60
E0
60
C0
C0
C0
ENDCHAR
STARTCHAR twoinferior
ENCODING 8322
SWIDTH 333 0
DWIDTH 5 0
BBX 5 6 2 -3
BITMAP
30
58
18
30
60
F0
ENDCHAR
STARTCHAR threeinferior
ENCODING 8323
SWIDTH 333 0
DWIDTH 5 0
BBX 5 6 2 -3
BITMAP
70
18
70
18
98
F0
ENDCHAR
STARTCHAR uni20A5
ENCODING 8357
SWIDTH 889 0
DWIDTH 12 0
BBX 12 11 1 -1
BITMAP
0180
0180
37E0
3BB0
3330
6660
6660
6E60
CCC0
DCC0
1800
ENDCHAR
STARTCHAR uni20A6
ENCODING 8358
SWIDTH 722 0
DWIDTH 11 0
BBX 12 11 1 0
BITMAP
1830
1830
1C30
3C60
3FE0
3660
7FC0
62C0
63C0
C180
C180
ENDCHAR
STARTCHAR uni20A9
ENCODING 8361
SWIDTH 944 0
DWIDTH 14 0
BBX 13 11 3 0
BITMAP
C618
C618
C630
CE30
CFE0
CA60
DFC0
D2C0
F380
6300
6300
ENDCHAR
STARTCHAR Euro
ENCODING 8364
SWIDTH 722 0
DWIDTH 11 0
BBX 12 11 0 0
BITMAP
01E0
0730
0C30
1800
7F00
3000
FE00
3000
3060
19C0
0F00
ENDCHAR
STARTCHAR uni20AD
ENCODING 8365
SWIDTH 722 0
DWIDTH 10 0
BBX 11 11 1 0
BITMAP
1860
18C0
1980
3300
3600
FFE0
7600
6600
6300
C300
C180
ENDCHAR
STARTCHAR uni2103
ENCODING 8451
SWIDTH 1102 0
DWIDTH 17 0
BBX 15 11 3 0
BITMAP
603C
90E6
9186
6300
0300
0600
0600
0600
060C
0338
01E0
ENDCHAR
STARTCHAR uni2109
ENCODING 8457
SWIDTH 991 0
DWIDTH 14 0
BBX 14 11 3 0
BITMAP
61FC
9180
9180
6300
0300
03F0
0600
0600
0600
0C00
0C00
ENDCHAR
STARTCHAR trademark
ENCODING 8482
SWIDTH 1000 0
DWIDTH 13 0
BBX 11 6 3 4
BITMAP
FA20
2260
22A0
4540
4540
4540
ENDCHAR
STARTCHAR uni212A
ENCODING 8490
SWIDTH 722 0
DWIDTH 10 0
BBX 11 11 1 0
BITMAP
1860
18C0
1980
3300
3600
3C00
7600
6600
6300
C300
C180
ENDCHAR
STARTCHAR uni212B
ENCODING 8491
SWIDTH 722 0
DWIDTH 9 0
BBX 9 14 0 0
BITMAP
0300
0480
0300
0300
0700
0D80
0D80
1980
1980
3180
7F80
6180
C180
C180
ENDCHAR
STARTCHAR uni2132
ENCODING 8498
SWIDTH 611 0
DWIDTH 8 0
BBX 10 11 1 0
BITMAP
00C0
00C0
0180
0180
0180
3F00
0300
0300
0600
0600
FE00
ENDCHAR
STARTCHAR minus
ENCODING 8722
SWIDTH 584 0
DWIDTH 9 0
BBX 7 1 2 4
BITMAP
FE
ENDCHAR
STARTCHAR fraction
ENCODING 8725
SWIDTH 167 0
DWIDTH 7 0
BBX 9 10 0 0
BITMAP
0180
0300
0600
0400
0C00
1800
1000
3000
6000
C000
ENDCHAR
STARTCHAR periodcentered
ENCODING 8729
SWIDTH 278 0
DWIDTH 4 0
BBX 2 2 2 3
BITMAP
C0
C0
ENDCHAR
STARTCHAR uni2236
ENCODING 8758
SWIDTH 333 0
DWIDTH 5 0
BBX 4 8 2 0
BITMAP
30
30
00
00
00
00
C0
C0
ENDCHAR
STARTCHAR uni2259
ENCODING 8793
SWIDTH 584 0
DWIDTH 9 0
BBX 8 6 2 3
BITMAP
1C
36
00
7F
00
FE
ENDCHAR
STARTCHAR uni225A
ENCODING 8794
SWIDTH 584 0
DWIDTH 9 0
BBX 8 6 2 3
BITMAP
36
1C
00
7F
00
FE
ENDCHAR
STARTCHAR notequal
ENCODING 8800
SWIDTH 584 0
DWIDTH 9 0
BBX 8 11 2 -1
BITMAP
06
06
0C
08
7F
18
FE
30
20
60
60
ENDCHAR
STARTCHAR equivalence
ENCODING 8801
SWIDTH 584 0
DWIDTH 9 0
BBX 8 5 0 2
BITMAP
FF
00
FF
00
FF
ENDCHAR
STARTCHAR uni2262
ENCODING 8802
SWIDTH 584 0
DWIDTH 9 0
BBX 8 11 0 -1
BITMAP
06
06
0C
FF
08
FF
10
FF
20
60
60
ENDCHAR
STARTCHAR lessequal
ENCODING 8804
SWIDTH 584 0
DWIDTH 8 0
BBX 8 7 1 0
BITMAP
07
3C
E0
38
0E
00
FF
ENDCHAR
STARTCHAR greaterequal
ENCODING 8805
SWIDTH 584 0
DWIDTH 9 0
BBX 8 7 1 0
BITMAP
70
1C
07
3C
E0
00
FF
ENDCHAR
STARTCHAR uni226E
ENCODING 8814
SWIDTH 584 0
DWIDTH 8 0
BBX 8 11 1 -1
BITMAP
06
06
0C
0F
3C
F8
38
3E
20
60
60
ENDCHAR
STARTCHAR uni226F
ENCODING 8815
SWIDTH 584 0
DWIDTH 9 0
BBX 8 11 1 -1
BITMAP
06
06
0C
78
1C
1F
3C
F0
20
60
60
ENDCHAR
STARTCHAR uni2270
ENCODING 8816
SWIDTH 584 0
DWIDTH 8 0
BBX 8 11 1 -2
BITMAP
06
06
0F
3C
E8
38
1E
30
FF
60
60
ENDCHAR
STARTCHAR uni2271
ENCODING 8817
SWIDTH 584 0
DWIDTH 9 0
BBX 8 11 1 -2
BITMAP
06
06
7C
1C
0F
3C
F0
30
FF
60
60
ENDCHAR
STARTCHAR fi
ENCODING -1
SWIDTH 611 0
DWIDTH 9 0
BBX 10 11 1 0
BITMAP
0EC0
18C0
1800
7D80
3180
3180
6300
6300
6300
C600
C600
ENDCHAR
STARTCHAR fl
ENCODING -1
SWIDTH 611 0
DWIDTH 9 0
BBX 10 11 1 0
BITMAP
0EC0
18C0
1980
7D80
3180
3300
6300
6300
6300
C600
C600
ENDCHAR
ENDFONT
